<?xml version="1.0" standalone="no"?>
<!DOCTYPE svg PUBLIC "-//W3C//DTD SVG 20010904//EN"
 "http://www.w3.org/TR/2001/REC-SVG-20010904/DTD/svg10.dtd">
<svg version="1.0" xmlns="http://www.w3.org/2000/svg"
 width="374.000000pt" height="308.000000pt" viewBox="0 0 374.000000 308.000000"
 preserveAspectRatio="xMidYMid meet">

<g transform="translate(0.000000,308.000000) scale(0.100000,-0.100000)"
fill="#000000" stroke="none">
<path d="M0 1540 l0 -1540 1870 0 1870 0 0 1540 0 1540 -1870 0 -1870 0 0
-1540z m1606 1421 c5 -5 95 -16 199 -26 105 -9 242 -22 305 -30 67 -7 116 -9
118 -4 2 5 8 7 13 3 5 -3 9 0 9 6 0 16 43 29 63 18 10 -5 22 -20 27 -34 9 -22
29 -34 144 -82 11 -5 15 -11 10 -15 -5 -3 -37 5 -69 19 -108 44 -109 32 -5
-91 190 -223 258 -292 292 -300 54 -11 238 -23 279 -18 24 4 39 11 39 20 0 7
29 -19 66 -59 68 -76 84 -89 84 -66 0 34 -14 88 -22 88 -5 0 -26 16 -46 36
-20 20 -79 66 -129 102 -51 36 -93 69 -93 73 0 4 -8 10 -17 12 -15 4 -15 5 -2
6 9 0 36 -13 60 -30 120 -84 195 -130 218 -136 44 -10 56 -31 53 -88 -7 -99 1
-110 123 -177 61 -33 122 -67 137 -75 49 -25 196 -214 219 -281 5 -16 6 -92 1
-192 l-8 -165 -58 -135 c-32 -74 -62 -140 -68 -147 -16 -20 -37 -3 -49 41 -23
87 -59 146 -118 192 -48 38 -63 44 -106 45 l-50 2 60 7 c33 3 62 5 64 3 2 -2
-2 -3 -9 -3 -7 0 6 -13 28 -30 23 -16 46 -30 51 -30 12 0 55 -75 71 -123 19
-60 22 -37 5 49 -8 43 -15 91 -15 105 0 26 -24 45 -66 51 -27 4 -28 -4 -8 -45
l16 -32 -26 30 c-14 17 -25 35 -26 41 0 6 -51 32 -112 57 -62 25 -146 60 -185
78 -65 29 -75 31 -97 19 -15 -7 -37 -10 -57 -6 -34 7 -15 20 -300 -208 -87
-70 -99 -83 -99 -111 0 -17 -5 -36 -12 -43 -9 -9 -7 -29 7 -87 18 -71 29 -89
37 -64 2 6 4 -9 4 -33 0 -23 15 -92 33 -153 17 -60 45 -157 62 -215 56 -194
91 -295 105 -306 20 -16 21 -55 2 -67 -14 -9 -23 -6 -45 14 -33 30 -80 57
-220 128 -57 29 -103 54 -103 57 0 6 40 -13 182 -86 70 -35 130 -61 134 -57 5
4 -16 90 -45 190 -80 276 -161 567 -161 580 -1 7 -7 26 -14 42 -12 29 -14 24
-49 -120 -20 -82 -51 -221 -68 -308 l-32 -158 21 -39 21 -40 -22 -15 c-12 -8
-31 -15 -42 -15 -15 0 -29 -17 -54 -66 -18 -36 -35 -63 -38 -61 -2 3 10 33 27
67 l31 62 -17 45 c-14 37 -15 46 -4 53 11 7 11 12 -1 28 -33 48 -235 281 -242
281 -5 1 -6 -20 -3 -46 4 -27 13 -136 21 -243 31 -425 39 -510 47 -510 4 0 37
57 72 128 36 70 65 124 65 119 1 -4 -26 -62 -60 -129 -60 -121 -61 -121 -44
-152 23 -44 7 -86 -33 -86 -41 0 -65 22 -64 57 0 24 -29 67 -149 219 -256 324
-266 335 -292 325 -22 -8 -60 -74 -194 -333 -30 -60 -57 -108 -60 -108 -3 0
-31 15 -62 34 -31 18 -158 91 -284 160 -223 124 -227 126 -252 110 -47 -31
-104 13 -93 71 4 26 -419 382 -435 366 -6 -6 -18 -11 -26 -11 -24 0 -121 101
-121 126 0 22 23 47 51 57 9 3 30 29 46 59 101 183 246 441 309 550 41 69 74
129 74 132 0 7 -78 -17 -215 -67 -97 -36 -121 -49 -123 -66 -4 -24 -38 -51
-64 -51 -24 0 -58 35 -58 60 0 29 35 60 68 60 25 0 76 48 343 322 172 177 308
323 302 325 -7 3 -65 -10 -129 -27 -64 -17 -118 -29 -121 -27 -2 3 33 14 79
26 46 12 103 28 128 34 28 8 49 21 56 34 6 13 22 32 36 43 22 17 27 17 32 5 3
-8 13 -15 23 -15 28 1 516 214 520 227 5 15 -47 30 -264 78 l-162 36 -27 -23
c-14 -13 -30 -32 -34 -43 -8 -19 -9 -19 -9 3 -1 12 -4 22 -7 22 -13 0 -464
-429 -464 -442 0 -3 16 -2 36 4 20 5 38 7 41 5 2 -3 -11 -8 -29 -12 -18 -4
-45 -20 -60 -36 -32 -34 -39 -35 -63 -9 -15 17 -16 24 -6 46 9 20 17 25 32 21
21 -6 63 31 392 344 94 90 98 95 88 121 -15 39 1 44 159 52 74 3 171 12 215
20 44 7 125 19 180 26 55 7 111 19 125 26 30 16 43 17 56 5z m948 -182 c44
-12 188 -78 196 -90 3 -4 17 -11 33 -14 15 -4 24 -11 22 -16 -7 -10 -95 31
-95 44 0 4 -4 6 -9 3 -8 -5 -84 26 -121 49 -8 5 -19 10 -25 11 -5 1 -21 7 -35
12 -33 14 -15 15 34 1z m-1647 -71 c-3 -8 -6 -5 -6 6 -1 11 2 17 5 13 3 -3 4
-12 1 -19z m-20 -80 c-3 -8 -6 -5 -6 6 -1 11 2 17 5 13 3 -3 4 -12 1 -19z
m-13 -57 c-4 -17 -9 -30 -11 -27 -3 2 -2 19 2 36 9 41 17 33 9 -9z m1951
-1058 c-20 -3 -44 -20 -73 -51 l-43 -47 33 52 c31 49 35 52 73 51 32 -1 34 -2
10 -5z m143 -10 c-15 -2 -42 -2 -60 0 -18 2 -6 4 27 4 33 0 48 -2 33 -4z m130
-10 c-16 -2 -40 -2 -55 0 -16 2 -3 4 27 4 30 0 43 -2 28 -4z m90 -10 c-10 -2
-26 -2 -35 0 -10 3 -2 5 17 5 19 0 27 -2 18 -5z m-500 -105 c-13 -18 -46 -78
-75 -133 -29 -55 -52 -97 -53 -92 -1 25 131 257 146 257 3 0 -5 -15 -18 -32z"/>
<path d="M1320 2905 c-259 -38 -334 -54 -305 -66 29 -12 361 -79 390 -79 14 0
33 4 43 9 9 5 24 12 33 14 22 7 87 134 74 145 -6 6 -99 -3 -235 -23z"/>
<path d="M1576 2910 c-19 -21 -66 -117 -66 -134 0 -7 7 -16 15 -20 8 -3 15
-12 15 -20 0 -15 40 -29 270 -91 74 -20 260 -75 414 -121 153 -47 281 -83 283
-80 3 3 -24 19 -58 37 -35 17 -149 77 -254 134 -104 56 -272 146 -372 199
-161 86 -214 117 -170 100 20 -7 358 -183 667 -346 151 -80 300 -158 330 -173
l55 -27 -30 33 c-35 39 -71 80 -245 277 -89 102 -131 142 -147 142 -12 0 -32
13 -45 29 -22 28 -28 29 -173 45 -347 37 -467 41 -489 16z"/>
<path d="M1295 2640 c-60 -27 -173 -76 -249 -108 -77 -32 -141 -63 -143 -69
-3 -7 58 -13 174 -18 127 -5 178 -4 181 4 2 6 17 11 33 11 31 0 45 17 115 146
34 61 37 85 11 83 -7 0 -61 -22 -122 -49z"/>
<path d="M1540 2683 c0 -7 313 -317 370 -366 25 -22 275 -186 353 -231 l42
-25 90 23 c50 12 133 30 185 40 52 10 105 20 118 22 30 6 84 81 80 114 -2 18
-15 31 -48 47 -56 27 -259 88 -320 96 l-45 6 41 -15 c34 -12 43 -22 54 -54 16
-50 0 -94 -44 -121 -83 -50 -191 5 -212 108 -9 45 26 102 63 104 14 0 13 2 -6
10 -33 13 -192 36 -341 49 -124 10 -125 10 -142 -12 -17 -22 -19 -22 -22 2 0
6 -7 15 -15 19 -28 18 13 23 127 16 246 -14 402 -42 631 -111 116 -35 151 -40
84 -11 -91 38 -985 297 -1026 297 -10 0 -17 -3 -17 -7z"/>
<path d="M1485 2663 c-26 -4 -37 -16 -87 -106 l-57 -102 33 -3 c19 -2 89 8
157 22 68 15 131 26 139 25 32 -1 -35 -19 -162 -44 -127 -24 -147 -30 -137
-40 3 -2 96 -23 206 -45 110 -22 208 -42 217 -46 24 -9 31 22 9 49 -33 42
-277 297 -283 295 -3 0 -18 -3 -35 -5z"/>
<path d="M892 2409 c-12 -23 -6 -39 79 -204 50 -99 97 -186 104 -193 10 -11
15 -9 26 10 28 44 159 326 159 341 0 8 -8 24 -17 36 -16 19 -32 21 -178 27
l-160 7 -13 -24z"/>
<path d="M2338 2413 c7 -3 16 -2 19 1 4 3 -2 6 -13 5 -11 0 -14 -3 -6 -6z"/>
<path d="M1349 2381 c-13 -10 -32 -20 -42 -22 -31 -7 -200 -379 -173 -379 3 0
96 41 208 91 112 50 237 106 278 124 125 54 203 96 194 105 -12 10 -149 43
-294 70 -63 11 -122 23 -131 26 -9 2 -27 -4 -40 -15z"/>
<path d="M660 2245 c-74 -77 -191 -199 -260 -270 -197 -205 -218 -228 -195
-222 11 3 83 28 160 55 119 42 142 53 154 77 7 15 22 30 33 33 13 3 54 73 134
234 63 127 114 231 112 232 -2 0 -64 -62 -138 -139z"/>
<path d="M822 2378 c-17 -22 -220 -432 -227 -461 -7 -25 -5 -27 22 -27 17 0
110 11 209 25 98 14 181 25 184 25 3 0 13 15 23 33 l17 32 -97 189 c-54 105
-103 191 -109 193 -6 2 -16 -2 -22 -9z"/>
<path d="M2721 2374 c16 -19 166 -118 215 -141 29 -14 34 -13 92 16 34 17 71
31 82 31 28 0 25 8 -18 59 l-38 44 -174 4 c-164 4 -173 4 -159 -13z"/>
<path d="M2798 2279 c6 -7 12 -20 12 -28 0 -26 -52 -96 -105 -143 -38 -34 -45
-37 -31 -15 18 27 18 27 -5 27 -13 0 -87 -16 -163 -35 -76 -19 -149 -35 -161
-35 -11 0 -26 -5 -32 -11 -13 -13 -19 -10 -215 118 -175 113 -182 115 -108 37
36 -38 118 -126 183 -195 l118 -126 55 -7 c52 -6 57 -4 117 35 34 23 100 64
147 92 47 28 139 84 204 125 l119 76 -31 26 c-36 30 -123 80 -104 59z"/>
<path d="M1765 2239 c-107 -50 -247 -113 -417 -189 -165 -73 -213 -100 -179
-100 6 0 106 -11 223 -25 403 -48 830 -95 864 -95 19 0 34 5 34 10 0 9 -92
110 -325 358 -48 50 -53 54 -105 57 -38 2 -67 -3 -95 -16z"/>
<path d="M3040 2223 l-73 -38 -3 -45 c-2 -25 -6 -78 -9 -118 l-6 -74 28 6 c15
3 78 15 138 26 78 15 136 34 197 63 48 23 87 45 88 49 0 4 -13 15 -29 24 -17
10 -28 21 -25 26 3 4 -1 6 -8 3 -7 -3 -24 5 -38 16 -21 17 -22 19 -3 10 33
-17 42 -12 10 5 -15 8 -32 12 -37 9 -6 -3 -7 1 -4 10 5 12 1 14 -17 11 -30 -4
-62 11 -53 26 4 7 2 8 -5 4 -6 -4 -23 -1 -36 8 -32 21 -32 21 -115 -21z"/>
<path d="M2895 2143 c-16 -8 -52 -30 -80 -48 -27 -17 -127 -81 -222 -141 -94
-60 -170 -110 -168 -112 2 -2 116 20 253 49 l250 53 6 51 c8 70 7 165 -1 165
-5 -1 -21 -8 -38 -17z"/>
<path d="M3333 2032 c-45 -20 -83 -40 -83 -44 0 -4 26 -47 58 -95 31 -49 67
-111 79 -138 38 -86 108 -269 108 -285 2 -44 30 -230 35 -230 3 0 30 60 60
132 l54 132 4 137 c4 126 3 141 -17 183 -44 89 -171 246 -200 246 -9 0 -53
-17 -98 -38z"/>
<path d="M3068 1952 l-118 -25 0 -83 c0 -63 3 -83 15 -88 8 -3 24 -20 34 -37
16 -26 40 -41 123 -74 262 -107 334 -138 347 -148 12 -10 14 -9 9 3 -3 8 -29
74 -57 147 -31 78 -77 170 -114 230 -74 116 -66 114 -239 75z"/>
<path d="M1146 1915 c-3 -8 -16 -19 -29 -24 -22 -9 -23 -15 -45 -277 -27 -326
-27 -326 -2 -341 16 -11 42 -2 182 61 90 40 291 131 448 201 465 207 555 248
564 256 11 10 -13 15 -149 29 -107 10 -839 95 -921 105 -32 5 -43 2 -48 -10z"/>
<path d="M990 1913 c-14 -2 -97 -13 -185 -24 -206 -26 -197 -23 -220 -58 -13
-21 -22 -26 -27 -18 -6 9 -13 6 -26 -11 -25 -33 -366 -657 -391 -716 -4 -10
102 68 160 118 19 17 92 76 162 131 99 77 126 103 121 117 -3 11 4 29 19 47
19 23 25 26 33 14 13 -21 31 -9 109 76 38 42 118 127 177 189 94 98 128 146
101 141 -5 -1 -19 -3 -33 -6z m-413 -145 c-3 -8 -6 -5 -6 6 -1 11 2 17 5 13 3
-3 4 -12 1 -19z m10 -50 c-3 -7 -5 -2 -5 12 0 14 2 19 5 13 2 -7 2 -19 0 -25z
m10 -50 c-3 -8 -6 -5 -6 6 -1 11 2 17 5 13 3 -3 4 -12 1 -19z m10 -60 c-3 -7
-5 -2 -5 12 0 14 2 19 5 13 2 -7 2 -19 0 -25z m10 -60 c-3 -7 -5 -2 -5 12 0
14 2 19 5 13 2 -7 2 -19 0 -25z"/>
<path d="M2800 1899 c-257 -56 -369 -84 -363 -90 8 -7 233 -50 364 -70 70 -11
78 -11 102 7 24 18 26 25 27 97 0 90 8 86 -130 56z"/>
<path d="M950 1783 c-277 -284 -263 -268 -264 -313 l-1 -42 142 -84 c140 -84
142 -85 168 -68 14 9 25 17 25 18 4 15 50 541 50 564 0 17 -3 32 -8 32 -4 0
-55 -48 -112 -107z"/>
<path d="M2378 1756 c-14 -19 -15 -30 -7 -61 l11 -38 126 7 c132 7 289 22 332
33 26 6 -356 82 -415 82 -20 0 -36 -7 -47 -23z"/>
<path d="M2020 1652 c-574 -254 -893 -403 -833 -387 12 3 134 28 272 55 320
63 322 63 349 100 20 27 27 30 75 28 48 -2 69 6 257 101 113 56 208 106 212
110 4 3 3 22 -2 41 -7 25 -20 39 -43 50 -32 15 -34 14 -287 -98z"/>
<path d="M2790 1664 c-47 -7 -148 -16 -225 -20 -77 -4 -147 -10 -156 -13 -15
-5 -14 -17 13 -111 32 -114 50 -150 74 -150 9 0 57 33 108 73 50 40 125 99
168 130 75 58 115 94 107 100 -2 2 -42 -3 -89 -9z"/>
<path d="M2140 1520 c-126 -63 -209 -110 -200 -114 8 -3 101 -16 205 -30 105
-14 211 -29 237 -32 59 -8 67 5 48 80 -23 91 -61 206 -68 205 -4 0 -104 -49
-222 -109z"/>
<path d="M676 1413 c-3 -3 -23 -5 -44 -5 -42 1 -67 -18 -312 -223 -47 -39
-100 -81 -117 -94 -18 -12 -33 -29 -33 -38 0 -12 9 -14 47 -10 45 6 46 6 13
-4 -57 -17 -64 -30 -37 -67 28 -37 52 -58 276 -246 115 -95 169 -135 180 -130
9 4 25 9 36 11 16 3 55 73 158 279 75 151 137 281 137 288 0 8 -4 17 -9 21 -6
3 -123 -20 -261 -50 -139 -31 -256 -55 -261 -53 -6 2 99 27 233 57 303 66 280
59 276 83 -2 14 -46 46 -140 103 -75 46 -139 81 -142 78z m-249 -329 c-3 -3
-12 -4 -19 -1 -8 3 -5 6 6 6 11 1 17 -2 13 -5z m-82 -20 c-27 -7 -57 -13 -65
-13 -21 1 70 27 95 27 11 0 -2 -6 -30 -14z"/>
<path d="M1930 1375 c0 -8 -8 -22 -18 -31 -18 -15 -17 -21 27 -165 40 -131 49
-150 70 -156 13 -3 30 -2 36 3 7 5 89 64 183 132 172 124 200 147 189 159 -9
8 -136 30 -315 53 -183 24 -172 24 -172 5z"/>
<path d="M1438 1297 c-332 -67 -348 -71 -348 -92 0 -16 64 -86 221 -239 200
-197 223 -217 251 -214 30 3 32 7 145 290 110 278 114 288 96 306 -17 18 -28
16 -365 -51z"/>
<path d="M1787 1183 c-31 -76 -76 -192 -102 -258 -25 -66 -51 -133 -57 -148
-6 -15 -8 -30 -5 -33 3 -3 78 44 166 106 111 77 161 117 161 130 0 10 5 22 10
25 17 10 10 45 -34 180 -58 180 -65 180 -139 -2z"/>
<path d="M2234 1144 c-104 -76 -189 -138 -190 -138 -1 -1 -4 -13 -8 -28 -5
-23 9 -44 120 -172 69 -81 134 -151 144 -156 24 -13 28 1 75 225 19 94 44 211
55 260 22 94 23 136 4 142 -6 2 -96 -58 -200 -133z"/>
<path d="M866 882 c-127 -257 -137 -280 -125 -301 10 -16 21 -21 39 -17 14 2
182 30 373 62 309 51 349 59 359 78 10 18 -10 41 -211 238 -209 206 -224 218
-259 218 l-38 0 -138 -278z"/>
<path d="M1860 872 c-52 -37 -125 -89 -162 -115 -43 -31 -65 -52 -62 -61 3 -8
1 -23 -5 -33 -8 -16 0 -31 42 -84 29 -36 121 -151 205 -257 84 -105 158 -194
163 -198 11 -6 11 -13 -22 441 -24 329 -29 369 -49 372 -8 2 -58 -28 -110 -65z"/>
<path d="M1420 648 c-30 -5 -190 -32 -354 -59 -165 -27 -304 -53 -308 -57 -5
-5 0 -16 9 -24 28 -26 513 -288 532 -288 17 0 27 13 74 100 16 30 61 110 99
177 60 108 67 125 56 143 -14 22 -25 23 -108 8z"/>
</g>
</svg>
