<?xml version="1.0" standalone="no"?>
<!DOCTYPE svg PUBLIC "-//W3C//DTD SVG 20010904//EN"
 "http://www.w3.org/TR/2001/REC-SVG-20010904/DTD/svg10.dtd">
<svg version="1.0" xmlns="http://www.w3.org/2000/svg"
 width="419.000000pt" height="388.000000pt" viewBox="0 0 419.000000 388.000000"
 preserveAspectRatio="xMidYMid meet">

<g transform="translate(0.000000,388.000000) scale(0.100000,-0.100000)"
fill="#000000" stroke="none">
<path d="M0 1940 l0 -1940 2095 0 2095 0 0 1940 0 1940 -2095 0 -2095 0 0
-1940z m1870 1219 c41 -4 172 -17 290 -29 118 -11 225 -22 237 -25 12 -3 28 1
35 8 42 42 80 38 98 -9 6 -15 25 -31 47 -40 21 -9 65 -28 98 -44 33 -15 71
-31 84 -35 24 -7 232 -104 240 -111 2 -2 2 -6 0 -9 -3 -2 -64 21 -135 53 -198
89 -312 134 -330 130 -18 -3 54 -93 248 -309 l87 -97 63 -10 c61 -10 156 -15
246 -13 31 1 42 5 42 16 0 9 29 -17 66 -57 68 -76 84 -89 84 -66 0 34 -14 88
-22 88 -5 0 -28 18 -51 41 -23 22 -81 67 -129 100 -49 33 -88 64 -88 70 0 14
15 11 42 -11 67 -52 195 -132 220 -137 37 -7 48 -29 49 -100 1 -32 4 -69 8
-81 6 -22 76 -66 253 -159 36 -19 113 -110 177 -207 l52 -80 -6 -155 c-4 -86
-8 -167 -11 -181 -6 -29 -112 -279 -126 -297 -18 -22 -36 -2 -58 65 -29 91
-53 126 -116 173 -43 32 -62 39 -101 40 l-48 2 60 7 c33 3 62 5 64 3 2 -2 -2
-3 -9 -3 -7 0 6 -13 28 -30 54 -39 60 -38 28 4 -14 19 -26 39 -26 44 0 5 -51
30 -112 55 -62 25 -146 60 -185 78 -65 29 -75 31 -97 19 -15 -7 -37 -10 -57
-6 -34 7 -15 20 -300 -208 -87 -70 -99 -83 -99 -111 0 -17 -5 -36 -12 -43 -9
-9 -7 -29 7 -87 18 -71 29 -89 37 -64 2 6 4 -9 4 -33 0 -23 14 -92 32 -153 18
-60 47 -157 63 -215 64 -217 91 -295 110 -313 23 -21 22 -45 -3 -60 -13 -8
-23 -4 -50 19 -18 16 -93 60 -166 97 -72 38 -132 70 -132 73 0 6 33 -10 172
-81 64 -32 120 -56 125 -52 6 7 -24 122 -82 317 -13 41 -49 167 -80 280 -31
113 -59 214 -64 224 -10 27 -43 -103 -116 -458 l-27 -130 21 -43 20 -42 -22
-16 c-12 -8 -31 -15 -42 -15 -17 0 -39 -36 -119 -197 l-97 -196 17 -33 c26
-47 8 -84 -40 -84 -40 0 -59 20 -58 59 0 22 -42 82 -202 283 -112 141 -207
258 -212 260 -28 17 -55 -20 -145 -188 -52 -98 -102 -195 -111 -216 -9 -21
-20 -38 -24 -38 -3 0 -31 15 -62 34 -32 19 -159 91 -285 160 -223 124 -228
126 -252 110 -47 -31 -104 13 -93 71 2 13 -58 69 -210 197 -192 163 -214 178
-228 164 -8 -9 -18 -16 -20 -16 -3 0 -32 25 -65 57 -76 72 -77 101 -7 138 11
5 84 126 163 268 79 142 171 304 204 361 34 56 61 105 61 109 0 8 -73 -14
-215 -67 -96 -35 -121 -48 -123 -65 -4 -24 -38 -51 -64 -51 -24 0 -58 35 -58
60 0 29 35 60 68 60 25 0 76 48 343 322 172 177 308 323 302 325 -7 3 -65 -10
-129 -27 -64 -17 -118 -29 -121 -27 -4 4 82 29 200 58 30 7 52 19 59 33 6 11
24 33 39 47 25 23 28 24 32 7 9 -31 -10 -38 455 159 124 53 122 60 -28 93 -52
12 -143 33 -202 46 l-107 25 -29 -28 c-16 -15 -32 -35 -35 -43 -4 -10 -6 -8
-6 8 -1 12 -4 22 -7 22 -13 0 -464 -429 -464 -442 0 -3 16 -2 36 4 20 5 38 7
41 5 2 -3 -11 -8 -29 -12 -18 -4 -45 -20 -60 -37 -24 -24 -31 -27 -48 -18 -28
15 -34 34 -20 59 7 13 21 21 37 21 18 0 45 17 87 58 406 383 395 372 389 408
-7 41 -12 39 197 53 175 12 456 52 485 69 11 6 27 9 35 5 8 -3 49 -10 90 -14z
m-793 -321 c-3 -8 -6 -5 -6 6 -1 11 2 17 5 13 3 -3 4 -12 1 -19z m-13 -57 c-4
-17 -9 -30 -11 -27 -3 2 -2 19 2 36 9 41 17 33 9 -9z m1945 -1058 c-44 -7
-125 -112 -206 -268 -29 -55 -52 -97 -53 -92 -1 20 94 190 145 262 32 44 60
85 62 92 3 8 20 12 42 12 28 -2 30 -3 10 -6z m149 -10 c-15 -2 -42 -2 -60 0
-18 2 -6 4 27 4 33 0 48 -2 33 -4z m130 -10 c-16 -2 -40 -2 -55 0 -16 2 -3 4
27 4 30 0 43 -2 28 -4z m95 -10 c-13 -2 -33 -2 -45 0 -13 2 -3 4 22 4 25 0 35
-2 23 -4z"/>
<path d="M1475 3111 c-188 -29 -290 -50 -281 -58 3 -3 95 -24 206 -47 171 -36
204 -41 228 -30 15 6 34 14 43 17 15 5 79 114 79 136 0 17 -75 12 -275 -18z"/>
<path d="M1768 3123 c-21 -24 -68 -119 -68 -137 0 -7 7 -16 15 -20 8 -3 15
-12 15 -20 0 -15 39 -28 270 -91 74 -21 260 -75 414 -121 153 -47 281 -83 283
-80 2 2 -51 33 -119 68 -68 36 -256 136 -418 223 -162 87 -311 166 -330 176
-42 23 -43 23 -62 2z"/>
<path d="M1830 3136 c0 -3 75 -44 168 -91 92 -46 257 -132 367 -191 339 -180
506 -266 510 -262 2 1 -82 100 -185 218 -130 148 -196 216 -212 218 -13 2 -34
16 -48 31 -24 28 -29 29 -230 49 -267 28 -370 35 -370 28z"/>
<path d="M1520 2865 c-41 -19 -154 -68 -250 -108 -96 -41 -176 -79 -177 -84
-6 -16 333 -28 351 -13 8 6 27 12 42 13 22 2 35 15 66 67 105 172 101 186 -32
125z"/>
<path d="M1730 2893 c0 -14 204 -212 213 -206 6 3 3 11 -7 19 -30 22 1 27 122
19 214 -12 387 -41 572 -94 96 -28 176 -49 177 -47 12 12 -423 146 -882 272
-158 43 -195 50 -195 37z"/>
<path d="M1675 2873 c-26 -4 -37 -16 -87 -106 l-57 -102 31 -3 c27 -3 287 44
297 54 6 5 -133 157 -145 159 -5 1 -22 0 -39 -2z"/>
<path d="M1853 2700 c-13 -5 -82 -21 -155 -35 -126 -24 -147 -30 -137 -39 3
-3 94 -23 204 -45 110 -23 210 -44 223 -47 43 -12 24 32 -45 105 -60 61 -71
69 -90 61z"/>
<path d="M1967 2687 c-15 -23 -14 -26 37 -76 28 -28 57 -51 63 -51 6 0 21 -11
32 -26 17 -22 234 -168 354 -238 l42 -25 90 23 c50 12 133 30 185 40 52 10
105 20 118 22 30 6 84 81 80 114 -2 18 -15 31 -48 47 -56 27 -259 88 -320 96
l-45 6 41 -15 c34 -12 43 -22 54 -54 33 -100 -79 -176 -180 -121 -101 53 -98
226 3 207 24 -4 28 -3 15 4 -22 13 -221 47 -323 54 -44 4 -103 9 -131 12 -46
5 -53 3 -67 -19z"/>
<path d="M1082 2618 c-13 -23 -7 -38 79 -204 50 -98 97 -185 104 -192 16 -17
21 -8 114 186 58 121 71 158 66 181 -3 16 -13 32 -21 35 -8 3 -85 8 -172 12
l-157 7 -13 -25z"/>
<path d="M2518 2623 c7 -3 16 -2 19 1 4 3 -2 6 -13 5 -11 0 -14 -3 -6 -6z"/>
<path d="M1539 2591 c-13 -10 -32 -20 -42 -22 -31 -7 -200 -379 -173 -379 3 0
92 39 198 86 106 48 232 104 279 125 139 61 212 100 203 109 -11 9 -193 52
-319 75 -49 9 -97 18 -106 21 -9 2 -27 -4 -40 -15z"/>
<path d="M760 2363 c-315 -327 -388 -408 -365 -400 11 3 83 28 160 55 119 42
142 53 154 77 7 15 22 30 33 33 13 3 54 73 134 234 63 127 114 231 112 232 -2
2 -104 -103 -228 -231z"/>
<path d="M1013 2588 c-18 -21 -221 -433 -229 -462 -8 -32 -9 -32 191 -7 238
31 229 29 248 65 l17 31 -97 189 c-54 105 -103 191 -109 193 -6 2 -16 -2 -21
-9z"/>
<path d="M2911 2584 c16 -19 166 -118 215 -142 30 -14 34 -13 90 17 32 17 68
31 81 31 31 0 29 7 -15 59 l-38 44 -174 4 c-164 4 -173 4 -159 -13z"/>
<path d="M2997 2468 c5 -30 -39 -95 -102 -150 -38 -34 -45 -37 -31 -15 18 27
18 27 -5 27 -13 0 -85 -16 -159 -35 -74 -19 -146 -35 -161 -35 -14 0 -30 -5
-36 -11 -12 -12 -74 22 -253 141 -132 88 -141 89 -65 9 39 -41 121 -129 183
-195 113 -121 114 -121 168 -128 52 -6 58 -4 117 35 34 23 100 64 147 92 141
83 320 198 320 205 0 7 -112 82 -122 82 -3 0 -3 -10 -1 -22z"/>
<path d="M3310 2471 c-14 -5 -53 -22 -87 -39 l-62 -32 -5 -52 c-20 -194 -20
-191 6 -186 12 3 75 15 138 27 82 16 140 34 202 64 48 23 88 45 88 49 0 3 -26
23 -57 43 -33 21 -47 34 -33 30 22 -5 23 -4 7 5 -10 7 -25 9 -33 6 -9 -3 -12
-1 -9 4 3 6 1 10 -5 10 -6 0 -8 5 -5 11 4 6 1 10 -6 8 -34 -4 -57 3 -79 24
-14 12 -27 21 -30 20 -3 -2 -4 2 -2 7 1 6 1 10 0 9 -2 0 -14 -4 -28 -8z"/>
<path d="M1855 2403 c-77 -35 -222 -100 -322 -145 -157 -70 -208 -98 -175 -98
4 0 86 -9 182 -20 900 -104 940 -108 940 -90 0 5 -84 100 -188 210 l-187 201
-55 3 c-49 3 -69 -3 -195 -61z"/>
<path d="M3085 2354 c-16 -9 -46 -26 -65 -39 -19 -12 -87 -55 -150 -95 -190
-119 -266 -170 -255 -170 6 0 121 23 256 52 l247 52 6 51 c8 70 7 165 -1 165
-5 -1 -21 -8 -38 -16z"/>
<path d="M3522 2240 c-45 -21 -82 -42 -82 -45 0 -3 22 -38 49 -78 57 -85 97
-161 122 -236 30 -85 16 -70 -19 22 -35 89 -145 275 -169 284 -8 3 -75 -7
-149 -22 l-134 -28 0 -83 c0 -71 3 -83 18 -88 10 -4 25 -20 33 -37 12 -27 30
-38 124 -76 105 -42 316 -128 343 -140 8 -3 5 11 -8 42 -11 26 -19 50 -17 52
7 7 52 -111 53 -140 2 -38 24 -188 31 -207 2 -8 30 44 60 115 l56 130 4 145
c5 141 4 146 -21 193 -52 97 -169 237 -197 237 -8 0 -52 -18 -97 -40z"/>
<path d="M1336 2125 c-3 -8 -16 -19 -29 -24 -22 -9 -23 -15 -45 -277 -27 -326
-27 -326 -2 -341 16 -11 42 -2 182 61 90 40 296 133 458 205 162 73 351 158
420 188 69 31 129 60 134 64 12 11 -8 14 -239 39 -161 17 -549 62 -826 95 -36
4 -48 2 -53 -10z"/>
<path d="M1190 2125 c-8 -2 -96 -14 -195 -26 -176 -22 -181 -24 -212 -55 -19
-18 -34 -27 -37 -20 -8 19 -36 -26 -152 -237 -100 -181 -253 -467 -263 -491
-5 -12 80 54 284 218 133 107 160 133 157 152 -2 15 5 28 18 36 11 7 20 20 20
28 1 12 3 11 11 -2 5 -10 14 -18 18 -18 14 0 381 392 381 407 0 13 -2 13 -30
8z m-423 -147 c-3 -8 -6 -5 -6 6 -1 11 2 17 5 13 3 -3 4 -12 1 -19z m10 -50
c-3 -7 -5 -2 -5 12 0 14 2 19 5 13 2 -7 2 -19 0 -25z m10 -60 c-3 -7 -5 -2 -5
12 0 14 2 19 5 13 2 -7 2 -19 0 -25z m10 -50 c-3 -7 -5 -2 -5 12 0 14 2 19 5
13 2 -7 2 -19 0 -25z m10 -55 c-3 -10 -5 -4 -5 12 0 17 2 24 5 18 2 -7 2 -21
0 -30z"/>
<path d="M2990 2109 c-288 -63 -369 -84 -363 -90 9 -8 394 -79 427 -79 12 1
31 9 44 19 19 17 22 29 22 95 0 89 7 86 -130 55z"/>
<path d="M1145 1998 c-275 -282 -274 -280 -270 -322 2 -22 10 -43 17 -48 7 -4
70 -42 140 -83 124 -74 128 -75 152 -60 29 19 27 8 56 330 22 252 24 285 12
285 -4 0 -52 -46 -107 -102z"/>
<path d="M2568 1966 c-14 -19 -15 -30 -7 -61 l11 -38 121 7 c153 8 330 26 339
35 8 7 -390 82 -427 81 -11 0 -28 -11 -37 -24z"/>
<path d="M2210 1862 c-412 -182 -834 -375 -845 -384 -6 -6 -4 -7 5 -4 8 3 132
28 275 56 317 61 319 62 354 99 25 26 35 30 77 29 43 -1 72 10 254 101 113 56
208 105 212 109 4 4 3 23 -2 42 -7 25 -20 39 -43 50 -32 15 -34 14 -287 -98z"/>
<path d="M2980 1874 c-47 -7 -148 -16 -225 -20 -77 -4 -147 -10 -156 -13 -15
-5 -13 -18 15 -118 33 -114 48 -143 73 -143 8 0 56 33 107 73 50 40 125 99
168 130 75 58 115 94 107 100 -2 2 -42 -3 -89 -9z"/>
<path d="M2330 1730 c-126 -64 -209 -110 -200 -114 22 -8 407 -59 455 -60 34
-1 40 2 43 22 4 28 -56 238 -72 251 -7 6 -86 -29 -226 -99z"/>
<path d="M3577 1713 c-3 -2 15 -38 39 -78 25 -41 52 -95 61 -120 8 -25 17 -45
19 -43 2 2 -5 51 -15 108 -13 81 -22 106 -38 117 -23 15 -59 24 -66 16z"/>
<path d="M829 1622 c-42 -3 -58 -13 -210 -138 -90 -75 -185 -151 -211 -171
-27 -19 -48 -42 -48 -50 0 -12 9 -14 48 -10 44 6 45 6 12 -4 -94 -29 -84 -42
200 -279 228 -189 209 -175 222 -162 7 7 21 12 33 12 17 0 44 49 158 275 75
151 137 282 137 289 0 8 -4 17 -9 20 -5 4 -123 -19 -261 -49 -139 -31 -256
-55 -262 -53 -5 2 80 23 189 47 291 64 321 72 327 86 6 17 4 19 -149 112 -119
71 -134 78 -176 75z m-212 -328 c-3 -3 -12 -4 -19 -1 -8 3 -5 6 6 6 11 1 17
-2 13 -5z m-82 -20 c-27 -7 -57 -13 -65 -13 -21 1 70 27 95 27 11 0 -2 -6 -30
-14z"/>
<path d="M2120 1586 c0 -8 -9 -24 -20 -34 -19 -17 -19 -22 -6 -53 7 -19 29
-83 47 -144 18 -60 38 -113 44 -117 17 -13 52 -9 64 6 7 8 86 67 175 130 163
115 194 141 183 152 -8 8 -62 18 -232 42 -238 34 -255 36 -255 18z"/>
<path d="M1625 1506 c-325 -66 -350 -72 -347 -91 1 -11 101 -118 222 -237 184
-183 224 -218 248 -218 22 0 32 7 41 28 10 20 188 464 217 537 2 6 -4 19 -14
31 l-17 21 -350 -71z"/>
<path d="M1988 1418 c-85 -205 -180 -459 -175 -464 3 -3 78 44 166 106 111 77
161 117 161 130 0 10 5 22 10 25 17 10 10 45 -34 180 -57 175 -65 176 -128 23z"/>
<path d="M2424 1353 c-104 -75 -189 -137 -190 -137 -1 -1 -4 -13 -8 -28 -5
-22 5 -38 66 -110 126 -147 200 -228 208 -228 12 0 18 22 60 220 22 102 49
227 61 279 19 88 20 141 0 141 -5 0 -94 -61 -197 -137z"/>
<path d="M1224 1372 c-29 -3 -35 -14 -167 -280 -76 -152 -138 -281 -137 -285
0 -5 6 -15 14 -23 12 -12 65 -5 390 48 340 57 375 64 380 83 5 16 -30 55 -171
195 -253 250 -272 266 -309 262z"/>
<path d="M2050 1082 c-52 -37 -126 -89 -163 -116 -37 -26 -66 -53 -64 -59 2
-7 1 -21 -4 -33 -5 -16 4 -35 44 -85 29 -36 121 -151 205 -257 84 -105 158
-195 164 -198 7 -4 8 21 4 77 -54 738 -53 732 -76 736 -8 2 -58 -28 -110 -65z"/>
<path d="M2204 1103 c4 -27 13 -136 21 -243 31 -429 39 -510 47 -510 5 0 52
88 104 196 l95 196 -17 45 c-14 37 -15 46 -4 53 11 7 11 12 -1 29 -32 46 -235
280 -242 280 -5 1 -6 -20 -3 -46z"/>
<path d="M1580 853 c-47 -8 -206 -34 -354 -59 -148 -24 -273 -47 -278 -52 -5
-5 0 -16 9 -24 28 -26 514 -288 532 -288 12 0 52 62 129 200 98 176 110 203
100 220 -15 23 -22 23 -138 3z"/>
</g>
</svg>
