<?xml version="1.0" standalone="no"?>
<!DOCTYPE svg PUBLIC "-//W3C//DTD SVG 20010904//EN"
 "http://www.w3.org/TR/2001/REC-SVG-20010904/DTD/svg10.dtd">
<svg version="1.0" xmlns="http://www.w3.org/2000/svg"
 width="566.000000pt" height="423.000000pt" viewBox="0 0 566.000000 423.000000"
 preserveAspectRatio="xMidYMid meet">

<g transform="translate(0.000000,423.000000) scale(0.100000,-0.100000)"
fill="#000000" stroke="none">
<path d="M2463 4086 l-84 -86 41 0 c46 0 49 -6 18 -46 -13 -15 -17 -25 -10
-20 6 4 12 3 12 -2 0 -12 -72 -103 -77 -98 -3 3 7 21 22 40 15 20 25 36 22 36
-5 0 -73 -89 -102 -135 -14 -22 -15 -27 -3 -17 13 10 18 10 24 1 4 -8 3 -9 -4
-5 -7 4 -12 4 -13 -1 -3 -30 -10 -48 -28 -67 -12 -12 -21 -26 -21 -31 0 -4 -8
-14 -17 -22 -10 -8 -11 -11 -4 -7 9 4 6 -6 -8 -24 -12 -18 -27 -32 -33 -32 -6
0 -9 -3 -6 -6 3 -3 -4 -15 -16 -28 -37 -39 -211 -288 -208 -298 1 -5 -2 -7 -7
-4 -13 8 -23 -9 -25 -45 -1 -16 -14 -42 -30 -58 -15 -15 -28 -37 -29 -49 0
-11 -4 -20 -7 -19 -9 3 -71 -65 -92 -100 -10 -15 -22 -27 -28 -25 -7 1 -9 -2
-6 -7 3 -5 -1 -14 -9 -21 -8 -7 -15 -9 -15 -5 0 4 -6 2 -14 -4 -11 -9 -23 -8
-52 6 -21 10 -39 23 -41 29 -2 6 39 71 91 145 161 227 190 268 222 312 17 23
64 89 105 147 41 57 101 138 134 179 93 115 114 144 129 176 8 17 24 39 35 49
21 19 28 51 13 60 -5 3 -8 -5 -8 -16 1 -16 -22 -40 -79 -85 -199 -158 -262
-214 -336 -301 -86 -104 -166 -220 -223 -327 -33 -62 -33 -65 1 -20 4 6 22 37
38 69 40 76 166 246 250 334 62 66 268 232 288 232 9 0 -28 -51 -104 -140 -25
-30 -79 -102 -120 -159 -41 -56 -94 -131 -119 -166 -25 -35 -91 -129 -148
-209 -57 -80 -105 -146 -107 -146 -2 0 5 19 15 43 11 23 19 60 19 82 l-1 40
-8 -48 c-11 -65 -63 -143 -111 -168 l-39 -19 0 22 c0 34 106 256 190 398 160
269 355 483 502 550 27 12 36 20 23 20 -34 0 -155 -89 -251 -184 -139 -140
-300 -380 -404 -602 -53 -113 -87 -210 -78 -219 10 -10 81 24 112 53 33 30 28
19 -22 -51 -19 -26 -38 -44 -43 -41 -5 3 -9 -2 -9 -10 0 -10 -16 -16 -57 -20
-229 -24 -287 -43 -359 -114 -30 -30 -60 -64 -65 -74 -6 -11 20 12 58 50 59
60 76 71 130 86 65 18 283 46 283 36 0 -7 -94 -142 -132 -190 -28 -36 -37 -35
-17 2 8 15 8 19 0 14 -6 -4 -11 -1 -11 6 -1 7 -15 -16 -33 -52 l-32 -65 -3 42
c-2 24 -10 55 -18 70 -15 27 -16 27 -9 3 4 -14 8 -52 10 -85 l4 -60 -8 55 c-4
31 -14 67 -21 80 -17 33 -60 84 -60 72 0 -5 7 -15 16 -23 23 -19 40 -59 43
-101 3 -39 -12 -52 -23 -22 -4 9 -9 15 -11 12 -3 -3 4 -26 16 -52 11 -26 18
-50 15 -53 -8 -8 -10 -5 -27 41 -16 45 -56 68 -54 32 1 -11 7 -34 14 -50 6
-16 10 -37 8 -45 -3 -12 -5 -10 -6 4 -1 11 -8 29 -16 39 -13 18 -15 18 -21 2
-4 -10 -13 -15 -21 -12 -11 5 -11 2 2 -16 22 -33 19 -55 -5 -27 -24 29 -25 19
-4 -24 16 -31 15 -31 -21 8 -20 22 -32 30 -26 18 6 -12 15 -24 20 -28 15 -9
52 -115 44 -128 -4 -7 -9 -4 -14 9 -5 15 -8 11 -14 -21 -7 -33 -9 -36 -16 -20
-7 18 -8 18 -9 -5 -1 -23 -2 -23 -10 -5 -11 26 -12 37 -2 31 4 -2 14 -1 22 4
20 12 -13 93 -48 116 -26 17 -27 17 -11 -2 28 -35 54 -80 37 -67 -8 7 -18 10
-21 6 -4 -3 -16 2 -28 13 -18 16 -17 12 5 -20 14 -21 26 -46 26 -55 0 -10 -7
-6 -19 12 -10 15 -29 36 -42 45 l-24 17 23 -29 c27 -36 21 -48 -9 -15 l-21 24
16 -25 c24 -37 21 -58 -4 -35 -18 17 -20 17 -14 2 3 -9 2 -17 -4 -17 -6 0 -9
-11 -7 -25 2 -25 2 -25 -18 -8 -20 17 -20 17 1 -20 21 -36 30 -64 14 -42 -4 6
-16 17 -26 25 -18 14 -19 14 -6 -10 12 -23 12 -24 -3 -11 -10 7 -17 9 -17 3 0
-5 7 -15 15 -22 32 -27 13 -31 -22 -4 -24 17 -32 20 -20 8 22 -27 10 -39 -17
-17 -12 11 -8 2 10 -22 16 -22 22 -35 14 -29 -8 6 -23 14 -32 17 -15 5 -15 2
3 -30 23 -41 18 -57 -6 -19 -10 14 -22 26 -29 25 -7 0 -6 -2 2 -6 6 -2 12 -12
12 -20 0 -14 -3 -13 -22 3 l-21 19 18 -28 c20 -32 14 -47 -11 -26 -16 13 -16
12 -3 -8 21 -35 2 -39 -34 -7 l-32 29 28 -31 c27 -31 27 -55 -1 -31 -13 11
-14 9 -1 -10 17 -28 5 -41 -19 -20 -35 32 -33 17 5 -30 21 -27 28 -40 17 -30
-11 9 -26 17 -32 17 -7 0 -12 3 -12 8 0 4 -10 13 -22 21 -18 11 -17 7 6 -18
33 -34 29 -39 -12 -15 l-27 16 28 -22 c15 -12 27 -28 27 -36 0 -20 -10 -18
-39 9 l-26 22 25 -30 c14 -16 30 -34 36 -40 27 -25 48 -95 24 -80 -6 4 -8 10
-6 14 8 12 -20 47 -57 73 -26 18 -29 19 -17 3 14 -17 13 -18 -14 -11 l-28 7
22 -28 c12 -15 17 -29 11 -31 -5 -2 -2 -20 9 -44 18 -40 17 -74 -1 -62 -5 3
-9 -1 -9 -8 0 -7 -5 -31 -11 -52 -7 -26 -13 -35 -19 -26 -6 9 -10 7 -15 -9 -3
-12 -17 -33 -30 -47 -20 -22 -30 -25 -77 -22 -64 4 -71 20 -34 75 39 56 79
195 68 235 -4 17 -13 33 -20 36 -10 3 -10 -2 -1 -21 8 -19 8 -30 0 -43 -11
-17 -11 -16 -6 6 5 20 2 18 -15 -10 l-21 -35 5 30 c5 30 5 30 -10 -4 -27 -61
-55 -190 -52 -242 3 -57 14 -64 93 -57 25 2 45 -1 45 -5 0 -5 -15 -28 -32 -52
-18 -24 -57 -78 -87 -120 -48 -70 -52 -77 -36 -89 14 -10 15 -16 6 -34 -13
-24 -26 -28 -36 -12 -6 10 -80 -92 -115 -159 -31 -63 -15 -49 20 16 17 32 42
72 56 88 20 25 26 28 34 15 8 -12 12 -12 18 -2 7 10 11 10 22 -3 11 -13 10
-15 -1 -10 -8 2 -23 -8 -33 -23 -19 -27 -19 -27 0 -10 16 14 22 14 37 4 9 -7
17 -17 17 -22 0 -17 -39 -86 -60 -109 -12 -13 -17 -26 -12 -29 10 -6 45 27 37
36 -3 2 2 5 10 5 15 0 12 -9 -14 -42 -11 -13 -7 -12 12 5 15 13 25 30 23 37
-3 6 8 26 25 44 16 17 29 27 29 22 0 -6 -9 -18 -20 -28 -16 -14 -18 -20 -8
-27 9 -6 -5 -25 -52 -70 -36 -33 -52 -51 -36 -39 15 11 32 18 37 15 5 -3 8 -2
7 3 -2 4 0 8 4 8 4 0 22 15 41 33 29 29 34 30 32 12 -2 -30 -76 -101 -195
-188 -58 -42 -107 -80 -108 -84 -2 -5 -7 -6 -12 -3 -5 3 -29 -19 -55 -47 -25
-29 -43 -44 -39 -33 7 18 6 18 -9 6 -23 -18 -22 -51 1 -51 23 0 52 30 52 54 0
9 4 15 9 12 5 -3 15 2 22 11 12 14 12 16 0 9 -9 -6 -12 -4 -9 5 3 8 9 14 15
14 11 0 215 145 258 182 11 10 45 47 75 83 79 95 122 140 130 135 3 -2 7 5 7
17 1 13 -3 18 -11 15 -10 -4 -12 1 -9 14 3 10 9 16 14 14 11 -7 27 26 22 45
-4 12 -3 12 5 1 11 -15 27 2 17 18 -3 5 -1 12 4 15 5 3 12 -2 15 -11 4 -10 -4
-30 -22 -53 -29 -35 -29 -36 -12 -58 22 -26 32 -29 23 -5 -4 10 -2 14 4 10 15
-9 11 -99 -4 -105 -7 -2 -13 1 -13 7 0 6 -6 11 -14 11 -8 0 -17 12 -19 28 -3
22 -4 21 -6 -9 -4 -114 196 -66 264 62 8 14 22 57 31 95 9 38 20 72 24 77 6 7
121 -269 135 -325 4 -16 11 -28 16 -28 5 0 4 12 -1 26 -7 19 -7 31 1 40 13 16
49 19 49 4 0 -5 -4 -10 -10 -10 -11 0 -13 -61 -4 -109 6 -29 9 -31 53 -31 28
0 62 8 85 21 41 22 85 66 86 87 0 21 13 14 69 -41 57 -54 47 -37 -21 33 -21
23 -38 45 -38 49 0 4 19 13 43 19 l42 11 -42 -2 c-35 -2 -43 1 -43 15 0 9 4
19 9 22 5 3 7 15 4 26 -4 16 0 20 18 21 17 1 19 3 7 6 -10 2 -18 9 -18 13 0
12 54 1 108 -22 62 -26 66 -21 7 8 -39 19 -43 23 -20 19 25 -4 27 -4 11 6 -10
6 -35 12 -56 13 -21 0 -36 4 -33 9 2 4 -1 7 -7 7 -6 0 -9 4 -5 9 5 9 51 -1
110 -24 11 -5 17 -5 13 -1 -4 5 -35 19 -70 32 -62 24 -62 25 -19 19 46 -6 184
-66 196 -85 4 -6 2 -17 -4 -24 -13 -15 -5 -27 14 -20 26 10 34 -86 11 -139 -7
-18 -33 -49 -56 -70 -33 -30 -40 -41 -30 -47 18 -11 65 16 96 56 13 17 29 55
35 85 15 75 -11 142 -92 238 -34 40 -59 75 -56 77 9 10 104 32 191 44 l85 13
42 -39 c23 -21 58 -54 78 -73 43 -40 143 -90 197 -96 21 -3 47 -14 59 -24 45
-42 148 -78 247 -87 27 -2 60 -10 75 -16 16 -7 44 -12 63 -13 19 -1 112 -18
205 -39 238 -53 301 -53 460 3 66 23 137 45 157 50 34 7 112 1 157 -14 16 -5
19 4 25 91 10 134 31 243 67 354 57 175 200 441 301 562 34 42 45 49 67 44 25
-5 26 -5 3 6 -19 9 -28 8 -54 -12 -21 -16 -33 -19 -36 -11 -2 6 -19 18 -37 25
-18 8 -70 49 -114 92 -45 42 -81 73 -80 68 1 -14 161 -156 189 -168 48 -21 51
-37 17 -80 -36 -44 -39 -50 -82 -126 -16 -30 -42 -65 -56 -79 -15 -14 -32 -37
-38 -51 -11 -24 -11 -24 3 -6 25 31 19 4 -10 -48 -30 -54 -40 -60 -20 -13 9
23 11 39 4 51 -7 12 -5 24 6 41 22 34 20 38 -8 19 -24 -15 -71 -83 -63 -90 2
-2 14 14 26 37 27 47 40 46 16 -1 -13 -25 -14 -34 -4 -46 16 -20 -35 -152 -62
-162 -10 -4 -35 -41 -55 -82 -20 -41 -39 -69 -41 -63 -3 7 3 27 11 44 19 39
19 36 0 36 -8 0 -22 -13 -30 -29 -8 -16 -20 -28 -27 -25 -6 2 -22 -8 -35 -22
-13 -14 -21 -20 -17 -13 3 6 2 12 -2 12 -11 0 -37 -31 -46 -52 -3 -9 -15 -22
-27 -28 -20 -11 -21 -10 -11 8 6 11 14 22 19 24 12 5 66 78 57 78 -4 0 -28
-22 -55 -50 -27 -27 -52 -50 -56 -50 -5 0 14 22 41 50 27 27 46 52 43 56 -3 3
-25 -15 -48 -40 -24 -25 -48 -46 -54 -46 -6 0 3 14 21 30 27 24 63 78 63 93 0
3 -46 -41 -103 -97 -61 -60 -99 -104 -92 -108 6 -5 5 -8 -4 -8 -8 0 -12 -3 -9
-6 4 -3 19 2 35 11 22 12 23 14 6 10 -35 -10 -27 2 17 25 50 26 62 25 30 -1
-24 -20 -20 -20 25 -3 32 11 5 -13 -40 -36 -22 -12 -32 -19 -22 -16 11 4 16 2
12 -5 -4 -6 -13 -8 -21 -5 -7 3 -35 -1 -61 -9 -26 -8 -49 -12 -51 -10 -3 2
-11 -3 -19 -11 -9 -8 -22 -13 -30 -10 -8 3 -23 1 -34 -4 -12 -7 -19 -7 -19 -1
0 5 9 13 21 16 11 4 18 9 16 12 -3 2 -20 -4 -39 -13 -24 -13 -57 -18 -122 -19
l-90 -1 80 38 c43 21 87 38 97 38 10 0 16 3 14 7 -3 5 6 9 19 9 13 1 42 11 64
23 22 11 40 17 40 12 0 -4 -25 -19 -55 -32 -30 -13 -55 -29 -55 -36 0 -9 15
-5 48 11 26 14 67 30 92 37 71 20 172 115 235 219 5 8 -34 -28 -86 -81 -129
-131 -149 -142 -51 -29 45 52 82 99 82 105 0 5 -14 -6 -31 -25 -20 -23 -28
-28 -24 -15 3 11 -19 -8 -50 -43 -31 -34 -62 -62 -68 -62 -6 0 9 21 34 48 59
61 99 111 99 123 0 5 -32 -25 -71 -66 -40 -42 -74 -73 -77 -70 -3 3 8 20 24
38 73 80 61 74 -32 -14 -94 -90 -144 -126 -202 -144 -22 -6 -23 -5 -13 14 7
12 16 21 22 21 6 0 7 -5 3 -11 -4 -8 0 -8 15 0 25 14 28 22 4 15 -15 -5 -15
-3 1 10 27 22 13 20 -35 -5 -59 -29 -57 -19 2 14 28 16 49 23 49 17 0 -7 7 -9
16 -6 15 6 15 4 3 -11 -12 -14 -9 -14 19 2 42 25 100 85 82 85 -8 0 -2 12 15
30 22 23 26 33 17 39 -8 5 -28 -8 -58 -37 -24 -25 -47 -42 -51 -38 -4 4 21 35
56 70 47 48 59 65 47 69 -10 4 -13 1 -9 -9 3 -8 1 -14 -5 -12 -9 3 -105 -90
-106 -104 -1 -9 -88 -68 -101 -68 -5 0 -3 5 5 10 21 13 150 143 146 147 -2 2
-24 -17 -50 -42 -26 -25 -48 -45 -50 -45 -1 0 -3 7 -3 15 0 8 6 15 12 15 14 0
47 34 41 41 -3 3 11 24 30 48 19 24 32 47 28 50 -3 3 -15 -5 -25 -19 -33 -42
-122 -130 -131 -130 -12 0 1 22 38 62 31 34 108 148 99 148 -2 0 -16 -17 -30
-38 -14 -20 -29 -37 -33 -38 -4 0 -35 -29 -70 -64 -34 -35 -65 -60 -69 -56 -4
3 3 13 15 22 28 19 85 102 78 113 -3 4 4 17 15 27 20 18 44 54 36 54 -2 0 -25
-27 -51 -60 -26 -33 -53 -60 -60 -60 -7 0 -25 -14 -42 -31 -29 -31 -29 -31 -4
-24 24 7 23 6 -5 -16 -54 -41 -60 -44 -36 -16 14 15 20 27 14 27 -6 0 -16 -7
-24 -16 -13 -16 -89 -58 -89 -49 0 2 12 11 28 19 15 8 48 33 74 56 41 35 46
45 38 61 -6 10 -8 20 -5 20 3 1 8 2 13 3 15 3 32 18 53 49 l22 32 -35 -33 -35
-33 2 25 c2 15 -1 24 -6 20 -5 -3 -9 1 -9 8 0 7 -7 0 -16 -17 -17 -33 -83
-105 -96 -105 -5 0 -21 -12 -36 -26 -41 -39 -150 -97 -168 -90 -9 4 -22 2 -28
-3 -18 -15 -66 -32 -66 -23 0 10 59 35 85 37 53 2 255 144 255 180 0 7 7 18
16 25 8 8 20 23 25 34 6 12 -14 -4 -43 -34 -50 -51 -118 -112 -90 -80 19 22
14 32 -10 19 -21 -11 -22 -11 -9 5 8 9 20 15 26 12 14 -5 85 64 89 86 1 8 10
28 20 44 24 37 11 24 -55 -55 -29 -36 -55 -59 -57 -53 -2 7 -19 -8 -38 -33
-19 -24 -45 -50 -57 -56 -15 -8 -8 3 19 32 22 24 52 58 66 76 14 18 29 29 33
25 5 -4 5 -2 2 5 -4 6 2 33 13 60 12 29 14 40 5 28 -8 -11 -20 -27 -27 -35
-54 -62 -93 -118 -93 -134 0 -11 -7 -21 -15 -24 -13 -5 -13 -3 0 14 14 19 14
19 -7 0 -13 -10 -20 -22 -18 -27 7 -11 -61 -65 -120 -95 -46 -24 -42 -27 10
-9 l20 7 -20 -16 c-11 -8 -25 -19 -31 -24 -32 -27 -65 -36 -136 -37 -43 0 -78
3 -78 8 0 4 11 7 25 7 14 0 33 4 43 9 39 21 141 61 153 61 11 0 11 2 -1 11
-12 8 -10 9 7 4 16 -4 26 0 38 18 10 16 22 23 34 20 10 -3 22 1 27 8 5 9 2 11
-9 6 -29 -11 -19 7 29 53 41 40 86 99 108 140 9 17 -25 -18 -67 -71 l-28 -34
27 48 c25 45 25 49 9 61 -10 7 -15 18 -11 24 4 7 5 12 2 12 -3 0 -10 -10 -17
-21 -8 -15 -8 -19 0 -15 19 12 13 -3 -26 -65 -20 -33 -53 -75 -75 -94 -21 -19
-38 -40 -38 -46 0 -8 5 -8 15 1 9 7 15 8 15 2 0 -11 -30 -26 -44 -23 -5 1 -21
-9 -35 -23 -14 -13 -48 -31 -74 -40 -54 -18 -162 -22 -152 -6 4 7 -5 9 -26 5
-29 -5 -31 -4 -18 11 13 16 12 16 -8 6 -33 -18 -48 -15 -32 5 12 14 10 14 -13
-1 -32 -21 -36 -12 -11 18 15 18 14 18 -8 -1 -23 -21 -49 -30 -49 -18 0 11 63
74 70 70 12 -8 63 53 55 66 -5 7 -4 10 2 6 11 -7 54 117 52 153 -1 16 -5 9
-11 -20 -6 -24 -17 -54 -25 -65 -12 -16 -14 -16 -10 -2 13 38 -9 14 -31 -33
-24 -53 -26 -60 -14 -59 4 0 6 6 4 14 -1 7 2 16 8 20 7 4 9 -3 6 -19 -8 -42
-17 -50 -33 -27 -18 26 -12 48 33 122 19 31 34 63 34 70 0 8 -8 0 -18 -18 -61
-111 -80 -152 -74 -158 4 -5 1 -4 -7 0 -11 6 -13 4 -8 -8 3 -9 1 -19 -5 -23
-7 -5 -8 -2 -3 6 5 9 4 11 -4 6 -6 -4 -9 -12 -5 -17 3 -5 0 -18 -7 -27 -12
-15 -12 -15 7 1 31 26 41 21 14 -8 -12 -13 -27 -22 -32 -19 -5 3 -7 0 -6 -6 3
-14 -38 -24 -46 -12 -2 4 11 28 30 52 45 58 89 153 98 211 6 43 5 46 -15 44
-20 -1 -57 -51 -46 -61 8 -8 38 27 32 37 -4 5 1 9 10 9 18 0 13 -31 -15 -95
-10 -22 -21 -49 -26 -60 -7 -19 -8 -19 -11 2 -3 12 1 32 7 43 6 12 10 24 7 26
-2 2 -17 -22 -33 -55 -17 -33 -26 -57 -22 -55 15 10 8 -12 -17 -49 -14 -20
-32 -37 -40 -37 -18 0 -19 11 -3 30 7 8 1 4 -14 -9 -16 -14 -28 -21 -28 -17 0
15 52 96 62 96 5 0 6 -6 1 -12 -11 -18 -13 -39 -3 -33 5 3 16 27 26 53 10 26
27 60 38 76 11 17 21 47 21 68 1 37 0 37 -12 16 -7 -13 -12 -30 -13 -39 0 -16
-48 -109 -55 -109 -5 0 11 56 20 70 3 5 1 10 -5 10 -7 0 -9 7 -6 16 3 9 8 28
11 42 5 25 4 24 -6 -3 -7 -16 -18 -34 -25 -38 -8 -4 -14 -18 -14 -30 0 -12 -9
-37 -21 -56 -27 -45 -42 -84 -29 -76 6 4 26 37 45 73 39 73 38 52 -1 -32 -24
-53 -76 -115 -60 -72 7 20 7 20 -15 0 -14 -12 -23 -15 -26 -8 -2 6 -15 9 -29
6 -24 -4 -25 -3 -15 16 6 11 19 28 28 38 10 10 18 27 19 38 0 12 4 41 7 66 7
44 7 44 -12 -13 -10 -32 -24 -64 -30 -71 -7 -8 -10 -18 -9 -22 4 -13 -30 -59
-38 -52 -3 4 10 39 30 79 38 75 49 120 21 83 -8 -10 -15 -25 -15 -32 0 -27
-52 -122 -66 -122 -10 0 -5 16 17 59 17 33 29 65 26 73 -3 9 -7 7 -11 -7 -18
-55 -60 -124 -77 -128 -23 -6 -23 -6 -2 54 12 33 23 49 35 49 12 0 20 15 28
53 7 29 10 62 7 72 -3 13 -5 8 -6 -13 -1 -35 -28 -108 -36 -100 -3 3 -1 18 5
34 8 20 8 40 1 69 -6 22 -12 51 -14 65 -3 14 -5 7 -6 -17 0 -24 -5 -43 -10
-43 -5 0 -16 -3 -25 -6 -12 -5 -16 0 -16 22 0 42 -7 25 -14 -31 -13 -117 -44
-225 -65 -225 -15 0 -20 12 -11 29 32 60 50 114 55 156 l4 50 -12 -55 -12 -55
-5 95 c-4 76 -7 90 -15 70 -9 -23 -10 -22 -15 20 -5 40 -7 34 -14 -45 -5 -62
-4 -111 4 -153 11 -54 11 -65 -5 -88 -23 -35 -39 -18 -24 25 6 17 9 34 6 37
-3 3 -8 -8 -12 -25 -4 -17 -11 -33 -16 -36 -11 -8 -11 2 0 43 7 23 6 42 -3 65
-8 17 -17 55 -21 82 -7 43 -9 47 -16 25 -6 -23 -7 -22 -10 10 -2 28 -3 23 -8
-20 -5 -42 -10 -55 -22 -54 -13 1 -15 -8 -12 -50 3 -36 -1 -62 -14 -86 -17
-34 -41 -41 -35 -10 2 8 6 29 9 45 3 17 9 32 13 35 4 3 4 25 0 50 l-7 45 -2
-45 c-1 -35 -4 -42 -12 -30 -8 11 -9 6 -4 -22 7 -42 -16 -98 -40 -98 -19 0
-19 10 1 38 19 27 28 116 15 140 -8 13 -10 0 -11 -49 0 -70 -24 -119 -57 -119
-14 0 -13 4 5 23 24 25 42 93 40 152 0 23 -3 30 -5 17 -2 -12 -9 -20 -14 -16
-7 4 -8 -7 -4 -29 9 -45 -8 -97 -40 -127 -34 -32 -44 -18 -11 14 35 36 54 100
36 122 -8 8 -17 34 -21 57 l-6 42 -2 -46 c0 -25 4 -50 10 -56 16 -16 -8 -92
-41 -125 -30 -30 -66 -39 -57 -14 4 11 1 13 -10 9 -11 -4 -14 -3 -9 6 4 6 15
10 24 7 10 -3 27 4 40 14 26 22 49 89 34 99 -5 3 -12 15 -15 26 -5 21 -12 -32
-9 -68 1 -10 -2 -16 -7 -13 -5 4 -11 0 -14 -6 -2 -7 -7 -11 -9 -8 -3 3 0 32 7
66 17 81 6 139 -31 170 -25 20 -39 23 -99 22 l-70 -1 67 -6 c106 -9 139 -56
117 -162 -16 -72 -17 -82 -18 -101 -1 -12 -9 -18 -25 -18 -19 0 -26 7 -31 30
-4 16 -11 32 -15 35 -5 3 -3 -15 4 -40 l14 -45 -34 0 c-77 0 -254 99 -254 142
0 5 9 4 19 -2 11 -5 23 -10 28 -10 4 1 -4 8 -20 16 -44 24 -32 63 40 131 62
58 150 92 348 134 210 44 261 48 470 42 110 -3 226 -5 258 -5 52 1 225 41 266
62 9 4 41 20 71 34 30 14 82 51 116 83 34 32 42 42 19 22 -59 -51 -110 -84
-179 -114 l-58 -26 39 45 c57 65 95 123 98 149 2 12 10 47 19 77 8 30 24 101
35 156 19 98 45 166 80 209 16 20 16 20 -7 1 -32 -27 -67 -110 -82 -191 -31
-169 -63 -260 -104 -293 -12 -9 -27 -26 -33 -36 -11 -20 -53 -30 -53 -13 0 6
7 19 17 29 9 10 13 21 10 24 -4 4 -15 -4 -25 -16 -11 -13 -21 -19 -25 -13 -8
12 20 53 36 53 7 1 19 16 28 35 9 19 13 32 8 30 -4 -3 -10 12 -12 32 -3 35 -4
34 -5 -9 -1 -29 -9 -56 -19 -68 -18 -21 -18 -21 -24 12 l-6 33 -2 -40 -3 -40
-13 30 c-8 17 -14 59 -15 95 0 48 -3 61 -11 50 -7 -11 -8 -3 -3 30 7 53 23 87
24 55 1 -17 3 -17 11 5 12 29 44 61 53 53 3 -4 6 -1 6 5 0 7 7 12 16 12 14 0
16 -8 12 -45 -5 -37 -2 -45 12 -50 25 -8 30 -26 19 -71 -11 -50 -11 -74 0 -74
8 0 21 76 26 160 2 25 10 62 18 81 12 30 12 36 1 36 -8 0 -14 -5 -14 -11 0
-24 -22 -86 -30 -86 -18 0 14 105 55 178 14 24 19 39 11 33 -11 -10 -16 -8
-21 9 -3 11 -10 18 -15 15 -4 -3 0 16 10 42 10 28 40 69 76 106 33 33 49 54
36 47 -45 -22 -137 -129 -176 -202 -21 -40 -48 -83 -60 -96 -28 -31 -79 -62
-112 -68 -15 -3 -39 -11 -55 -19 -15 -8 -30 -11 -33 -7 -3 5 -24 8 -46 6 -30
-2 -40 1 -37 10 3 7 -1 13 -8 13 -7 0 -11 -6 -8 -14 3 -8 -2 -13 -12 -13 -12
0 -15 5 -11 18 4 10 -2 7 -14 -8 -28 -35 -25 -24 14 61 19 41 39 94 46 118 6
23 13 41 16 39 2 -3 -3 -31 -11 -63 -20 -75 -12 -83 11 -11 10 31 19 54 22 52
2 -3 -4 -31 -14 -63 -20 -64 -25 -105 -13 -97 12 7 59 111 59 129 0 7 5 17 12
21 8 5 9 -3 5 -27 -5 -30 -4 -31 5 -11 12 23 23 28 33 13 8 -14 -25 -91 -40
-91 -7 0 -15 -7 -19 -15 -4 -12 -2 -13 13 -5 15 7 21 6 26 -8 13 -32 77 112
99 223 l6 30 -26 -30 -26 -30 4 32 c4 30 3 32 -12 18 -9 -8 -17 -31 -18 -52
-2 -21 -8 -42 -13 -48 -10 -9 -7 26 7 90 4 18 3 18 -12 -2 -9 -13 -20 -23 -24
-23 -5 0 -6 10 -4 23 3 16 1 15 -7 -5 -6 -16 -15 -28 -19 -28 -15 0 -6 54 13
74 9 11 17 24 17 28 0 5 27 46 61 92 59 81 62 84 107 88 51 5 360 90 345 95
-5 2 -42 -6 -83 -17 -171 -47 -280 -73 -286 -68 -3 3 14 33 38 66 24 33 79
113 123 177 44 64 107 153 141 198 186 251 254 378 232 436 -7 19 -1 35 31 85
70 107 72 132 18 165 -73 43 -82 41 -174 -53z m131 56 c3 -4 -18 -37 -45 -73
-43 -54 -55 -63 -77 -61 -56 7 -55 16 12 80 59 57 97 75 110 54z m28 -44 c-7
-7 -12 -8 -12 -2 0 6 3 14 7 17 3 4 9 5 12 2 2 -3 -1 -11 -7 -17z m-37 -15
c-25 -42 -73 -99 -79 -93 -5 6 81 120 90 120 3 0 -2 -12 -11 -27z m69 -21
c-18 -44 -61 -119 -72 -126 -4 -2 -19 6 -34 19 l-27 23 41 57 c22 31 43 54 46
51 3 -3 -8 -25 -25 -49 -35 -50 -46 -67 -40 -67 2 0 25 31 51 69 31 44 53 68
62 64 11 -4 11 -11 -2 -41z m-168 -94 c4 -7 3 -10 -1 -5 -5 4 -18 -1 -29 -10
-21 -18 -21 -18 -2 5 22 26 23 26 32 10z m94 -92 c0 -3 -4 -8 -10 -11 -5 -3
-10 -1 -10 4 0 6 5 11 10 11 6 0 10 -2 10 -4z m-208 -60 c5 4 2 -6 -8 -21 -10
-15 -20 -23 -22 -16 -2 6 -8 8 -14 5 -5 -4 -2 6 8 21 10 15 20 23 22 16 2 -6
8 -8 14 -5z m118 -134 c0 -5 -7 -17 -15 -28 -14 -18 -14 -17 -4 9 12 27 19 34
19 19z m-316 -464 c-43 -62 -92 -132 -110 -156 -28 -37 -32 -39 -30 -18 0 13
4 22 7 20 8 -5 53 53 119 151 52 79 79 115 87 115 2 0 -31 -51 -73 -112z
m-183 -211 c-10 -9 -11 -8 -5 6 3 10 9 15 12 12 3 -3 0 -11 -7 -18z m5 -35
c-17 -16 -18 -16 -5 5 7 12 15 20 18 17 3 -2 -3 -12 -13 -22z m-27 1 c-12 -14
-12 -17 0 -21 7 -2 9 -7 5 -11 -5 -3 -22 -23 -37 -44 -16 -20 -33 -35 -38 -31
-5 3 -6 10 -3 16 4 6 3 8 -3 5 -6 -4 -9 -18 -8 -31 2 -14 0 -25 -3 -25 -18 3
-26 -2 -15 -9 9 -6 4 -17 -18 -43 l-31 -34 22 38 c12 20 18 37 15 37 -4 0 0
10 8 23 10 15 12 29 6 39 -6 11 -3 20 8 29 12 10 15 10 9 2 -17 -30 3 -9 33
32 18 25 39 45 48 45 13 0 13 -2 2 -17z m-339 -89 c43 -17 48 -28 25 -58 -8
-10 -12 -23 -9 -28 3 -5 0 -7 -8 -6 -7 2 -13 -5 -13 -15 0 -10 -5 -21 -10 -25
-6 -4 -33 -38 -60 -77 -43 -60 -100 -135 -193 -251 l-24 -29 18 30 c9 17 40
62 69 100 56 76 79 115 45 75 -49 -56 -66 -77 -75 -95 -6 -10 -15 -18 -20 -19
-13 -1 -67 -69 -190 -238 -55 -75 -142 -192 -193 -258 -50 -67 -89 -127 -86
-132 4 -7 2 -8 -4 -4 -6 4 -19 0 -29 -9 -38 -34 -116 -88 -108 -74 5 8 34 48
66 90 31 42 92 127 135 190 84 123 274 383 391 534 44 58 180 247 206 288 21
32 16 31 67 11z m225 -14 c-3 -5 -8 -19 -10 -31 -6 -32 -26 -53 -36 -38 -4 7
3 26 18 46 23 30 42 46 28 23z m7 -122 c-7 -7 -12 -8 -12 -2 0 14 12 26 19 19
2 -3 -1 -11 -7 -17z m-92 -75 c-24 -32 -40 -50 -37 -40 8 21 71 106 76 102 1
-2 -16 -30 -39 -62z m220 -3 c0 -5 -5 -10 -11 -10 -5 0 -7 5 -4 10 3 6 8 10
11 10 2 0 4 -4 4 -10z m-31 -84 c-11 -26 -22 -46 -25 -44 -2 3 6 28 18 57 13
29 24 48 26 43 1 -4 -7 -30 -19 -56z m247 -4 c-17 -16 -18 -16 -5 5 7 12 15
20 18 17 3 -2 -3 -12 -13 -22z m-529 -30 c-10 -10 -17 -22 -17 -25 0 -4 -20
-33 -44 -64 -24 -32 -89 -120 -146 -196 -56 -75 -107 -140 -114 -144 -6 -4 -4
2 4 14 8 12 44 64 79 115 93 136 243 330 249 323 3 -2 -2 -13 -11 -23z m502
-48 c-6 -16 -13 -24 -16 -17 -5 13 16 58 23 50 3 -2 -1 -17 -7 -33z m-39 22
c0 -3 -4 -8 -10 -11 -5 -3 -10 -1 -10 4 0 6 5 11 10 11 6 0 10 -2 10 -4z
m-870 -17 c0 -15 -26 -39 -34 -32 -3 4 -6 -2 -6 -13 0 -16 -2 -17 -10 -4 -11
17 -13 60 -2 45 12 -16 32 -16 32 0 0 8 5 15 10 15 6 0 10 -5 10 -11z m-64
-43 c3 -14 4 -33 2 -43 -2 -11 -8 -2 -15 25 -6 23 -7 42 -2 42 5 0 11 -11 15
-24z m-16 -48 c0 -19 -2 -20 -10 -8 -13 19 -13 30 0 30 6 0 10 -10 10 -22z
m825 -55 c-11 -126 -13 -217 -4 -194 14 34 37 11 37 -39 1 -36 -20 -71 -34
-57 -4 3 -15 -4 -25 -16 l-19 -22 9 25 c5 14 15 25 23 24 20 -2 35 36 27 66
l-7 25 -1 -27 c-1 -32 -18 -46 -24 -21 -4 15 -5 14 -6 -3 0 -12 -8 -27 -16
-34 -13 -11 -14 -3 -11 61 2 41 2 61 0 44 -9 -69 -26 -135 -36 -135 -6 0 -8 9
-4 23 4 12 11 71 17 132 10 120 28 165 30 75 l1 -55 13 77 c12 71 20 98 30 98
2 0 2 -21 0 -47z m-201 10 c-4 -16 -11 -32 -16 -38 -9 -9 -1 39 9 58 9 16 13
5 7 -20z m-52 -8 c-2 -14 -8 -25 -12 -25 -4 0 -5 11 -2 25 2 14 8 25 12 25 4
0 5 -11 2 -25z m-132 -27 c0 -16 -3 -19 -11 -11 -6 6 -8 16 -5 22 11 17 16 13
16 -11z m90 18 c0 -3 -4 -8 -10 -11 -5 -3 -10 -1 -10 4 0 6 5 11 10 11 6 0 10
-2 10 -4z m-69 -49 c-8 -8 -11 -7 -11 4 0 9 3 19 7 23 4 4 9 2 11 -4 3 -7 -1
-17 -7 -23z m30 2 c-9 -22 -10 -22 -10 -3 -1 11 2 24 6 27 12 12 14 0 4 -24z
m-591 -45 c0 -8 -4 -14 -10 -14 -5 0 -10 -6 -10 -12 0 -7 -7 -22 -15 -32 -14
-18 -15 -18 -25 9 -12 31 -4 47 11 25 8 -11 9 -8 5 13 -4 15 -2 27 4 27 5 0
10 -6 11 -12 0 -10 2 -10 5 -1 3 6 -2 24 -12 40 l-16 28 26 -28 c14 -15 26
-35 26 -43z m14 40 c9 -36 -1 -43 -14 -10 -12 33 -12 36 -1 36 5 0 12 -12 15
-26z m496 6 c4 6 7 -7 7 -29 0 -23 -4 -44 -8 -47 -5 -3 -9 8 -9 25 0 16 -2 35
-3 43 -2 7 -2 9 1 4 2 -4 8 -3 12 4z m130 6 c0 -3 -4 -8 -10 -11 -5 -3 -10 -1
-10 4 0 6 5 11 10 11 6 0 10 -2 10 -4z m-28 -58 c-8 -8 -9 -4 -5 13 4 13 8 18
11 10 2 -7 -1 -18 -6 -23z m-75 -15 c-3 -10 -5 -4 -5 12 0 17 2 24 5 18 2 -7
2 -21 0 -30z m20 -20 c-6 -46 -49 -143 -54 -126 -7 19 17 84 28 77 5 -3 9 -2
8 3 -3 12 13 83 18 83 3 0 3 -17 0 -37z m44 -39 c-29 -60 -39 -50 -12 12 12
26 24 44 27 41 4 -3 -3 -27 -15 -53z m49 36 c-6 -11 -13 -20 -16 -20 -2 0 0 9
6 20 6 11 13 20 16 20 2 0 0 -9 -6 -20z m65 -30 c-9 -18 -19 -30 -21 -27 -3 3
2 19 11 37 9 18 19 30 21 27 3 -3 -2 -19 -11 -37z m45 25 c0 -8 -4 -15 -10
-15 -5 0 -7 7 -4 15 4 8 8 15 10 15 2 0 4 -7 4 -15z m-821 -40 c0 -5 -4 -3 -9
5 -5 8 -9 22 -9 30 0 16 17 -16 18 -35z m528 25 c-3 -11 -1 -20 5 -20 6 0 8
-14 4 -35 -10 -49 1 -44 14 8 16 60 20 71 26 64 3 -2 -5 -38 -17 -78 -17 -57
-24 -69 -30 -54 -6 17 -8 15 -8 -9 -1 -21 -5 -27 -16 -22 -9 3 -15 0 -15 -10
0 -8 -4 -12 -10 -9 -16 10 -12 22 12 45 17 16 23 33 24 68 1 62 3 72 10 72 4
0 4 -9 1 -20z m-547 -40 c0 -18 -19 -39 -21 -23 0 4 -2 18 -5 30 -3 17 0 21
11 17 8 -4 15 -14 15 -24z m706 21 c-3 -4 -10 -21 -16 -36 -6 -15 -13 -25 -16
-22 -6 6 23 67 32 67 3 0 3 -4 0 -9z m17 -21 c-6 -24 -23 -37 -23 -18 0 12 18
38 26 38 1 0 0 -9 -3 -20z m191 5 c-4 -8 -8 -15 -10 -15 -2 0 -4 7 -4 15 0 8
4 15 10 15 5 0 7 -7 4 -15z m-171 -10 c-3 -9 -8 -14 -10 -11 -3 3 -2 9 2 15 9
16 15 13 8 -4z m-243 -41 c0 -14 -4 -23 -9 -20 -5 3 -7 15 -4 26 7 28 13 25
13 -6z m121 3 c-10 -9 -11 -8 -5 6 3 10 9 15 12 12 3 -3 0 -11 -7 -18z m39 3
c0 -5 -4 -10 -10 -10 -5 0 -10 5 -10 10 0 6 5 10 10 10 6 0 10 -4 10 -10z
m-726 -36 c9 -23 7 -36 -3 -30 -12 8 -21 46 -11 46 4 0 11 -7 14 -16z m-49
-26 l16 -33 -20 25 c-20 24 -26 40 -16 40 2 0 12 -15 20 -32z m1161 4 c-17
-16 -18 -16 -5 5 7 12 15 20 18 17 3 -2 -3 -12 -13 -22z m-1188 -17 c-3 -3 -9
2 -12 12 -6 14 -5 15 5 6 7 -7 10 -15 7 -18z m1217 6 c-3 -6 -11 -11 -17 -11
-6 0 -6 6 2 15 14 17 26 13 15 -4z m-139 -19 c-18 -16 -18 -16 -6 6 6 13 14
21 18 18 3 -4 -2 -14 -12 -24z m78 17 c-3 -6 0 -15 7 -20 8 -5 10 -9 4 -9 -19
0 -38 18 -31 29 4 6 12 11 17 11 6 0 7 -5 3 -11z m-748 -53 c-31 -53 -55 -73
-30 -25 26 51 46 80 52 75 2 -3 -7 -25 -22 -50z m214 28 c0 -8 -4 -14 -8 -14
-4 0 -8 9 -8 19 0 11 4 17 8 15 4 -3 8 -12 8 -20z m422 -6 c-7 -7 -12 -8 -12
-2 0 6 3 14 7 17 3 4 9 5 12 2 2 -3 -1 -11 -7 -17z m-1033 -19 c13 -39 14 -36
-1 -42 -8 -3 -13 4 -14 17 0 11 -4 29 -8 39 -5 10 -4 17 2 17 6 0 15 -14 21
-31z m1101 27 c0 -3 -4 -8 -10 -11 -5 -3 -10 -1 -10 4 0 6 5 11 10 11 6 0 10
-2 10 -4z m-1125 -36 c3 -5 1 -10 -4 -10 -6 0 -11 5 -11 10 0 6 2 10 4 10 3 0
8 -4 11 -10z m-35 -32 c21 -34 26 -58 12 -58 -4 0 -14 20 -23 45 -19 53 -16
57 11 13z m595 22 c3 -5 1 -10 -4 -10 -6 0 -11 5 -11 10 0 6 2 10 4 10 3 0 8
-4 11 -10z m-215 -60 c0 -5 -7 -10 -16 -10 -8 0 -12 5 -9 10 3 6 10 10 16 10
5 0 9 -4 9 -10z m-390 -9 c0 -5 3 -16 6 -25 10 -26 -10 -18 -23 9 -9 20 -8 25
3 25 8 0 14 -4 14 -9z m-269 -98 c-12 -20 -14 -14 -5 12 4 9 9 14 11 11 3 -2
0 -13 -6 -23z m-25 -59 c-1 -38 -8 -61 -28 -90 -15 -21 -31 -50 -37 -64 -8
-20 -10 -21 -10 -6 -2 39 22 151 35 163 6 7 10 21 8 31 -4 12 0 18 14 18 17 0
19 -7 18 -52z m217 41 c4 -8 2 -17 -3 -20 -6 -4 -10 3 -10 14 0 25 6 27 13 6z
m3029 -77 c-7 -7 -12 -8 -12 -2 0 14 12 26 19 19 2 -3 -1 -11 -7 -17z m-58
-44 c4 -10 2 -13 -6 -8 -8 5 -9 1 -4 -12 5 -14 4 -16 -4 -8 -6 6 -8 18 -4 27
8 21 10 21 18 1z m-2217 -86 c-2 -13 -4 -3 -4 22 0 25 2 35 4 23 2 -13 2 -33
0 -45z m143 50 c-1 -7 -7 -26 -16 -43 -12 -26 -14 -27 -9 -5 2 14 5 33 5 43 0
9 5 17 10 17 6 0 10 -6 10 -12z m-901 -73 c0 -5 -6 -1 -14 9 -8 11 -15 27 -15
35 1 17 29 -26 29 -44z m647 8 c3 -16 9 -38 14 -49 15 -38 -7 -94 -37 -94 -10
0 -12 6 -7 23 4 12 11 25 16 28 5 3 5 29 0 62 -9 57 2 81 14 30z m-693 0 c-4
-10 -2 -14 4 -10 7 5 9 -1 6 -15 -4 -19 -3 -20 6 -8 6 8 11 10 11 4 0 -17 -49
-87 -79 -111 -14 -11 -26 -25 -26 -30 -1 -22 -27 -51 -42 -48 -10 1 -26 -4
-35 -13 -26 -22 -22 -6 8 34 15 19 24 34 21 34 -8 0 -97 -118 -97 -128 1 -4
10 4 20 17 22 26 27 16 6 -12 -12 -15 -18 -16 -35 -7 -12 6 -21 13 -21 15 0 4
66 99 142 202 30 41 87 87 115 93 1 0 -1 -7 -4 -17z m3010 2 c-3 -9 -8 -14
-10 -11 -3 3 -2 9 2 15 9 16 15 13 8 -4z m-1593 -4 c0 -12 -20 -25 -27 -18 -7
7 6 27 18 27 5 0 9 -4 9 -9z m699 -8 c-28 -38 -75 -86 -104 -106 -18 -12 -3 8
35 50 36 39 69 72 74 72 5 1 3 -7 -5 -16z m-1216 -69 c-16 -42 -23 -49 -46
-50 -30 -1 -34 7 -12 26 13 11 14 10 9 -5 -5 -12 -4 -16 4 -12 6 4 18 30 27
58 11 31 21 47 27 41 5 -5 2 -28 -9 -58z m-233 16 c0 -27 -27 -80 -41 -80 -6
0 -8 6 -5 13 2 6 10 29 17 50 13 40 29 49 29 17z m201 -3 c-10 -9 -11 -8 -5 6
3 10 9 15 12 12 3 -3 0 -11 -7 -18z m1338 6 c-27 -34 -51 -55 -56 -50 -3 3 10
19 29 36 37 34 47 39 27 14z m-426 -18 c-3 -9 -8 -14 -10 -11 -3 3 -2 9 2 15
9 16 15 13 8 -4z m-429 -13 c3 -5 -1 -9 -9 -9 -8 0 -15 4 -15 9 0 4 4 8 9 8 6
0 12 -4 15 -8z m-94 -6 c0 -2 -8 -10 -17 -17 -16 -13 -17 -12 -4 4 13 16 21
21 21 13z m795 -26 c-33 -34 -138 -96 -176 -104 -13 -3 -46 -12 -73 -21 -46
-14 -82 -13 -40 1 10 4 38 15 62 25 23 10 42 14 42 9 0 -5 7 -7 15 -4 8 4 13
9 10 13 -2 4 2 8 9 8 15 0 131 70 147 89 6 8 16 14 22 14 6 0 -2 -14 -18 -30z
m-195 -15 c-7 -9 -15 -13 -19 -10 -3 3 1 10 9 15 21 14 24 12 10 -5z m-1550
-45 c0 -5 -5 -10 -11 -10 -5 0 -7 5 -4 10 3 6 8 10 11 10 2 0 4 -4 4 -10z m63
3 c-7 -2 -19 -2 -25 0 -7 3 -2 5 12 5 14 0 19 -2 13 -5z m1782 -16 c-15 -23
-63 -52 -72 -43 -3 3 72 61 85 65 1 1 -4 -10 -13 -22z m773 -59 c-24 -99 -41
-134 -34 -68 4 37 2 33 -12 -22 -25 -98 -32 -92 -10 9 25 120 40 153 74 163 1
0 -8 -37 -18 -82z m-2738 62 c0 -5 -4 -10 -10 -10 -5 0 -10 5 -10 10 0 6 5 10
10 10 6 0 10 -4 10 -10z m326 -28 c-7 -7 -46 9 -46 18 0 5 11 4 25 -2 14 -6
23 -13 21 -16z m275 18 c5 0 9 -5 9 -11 0 -6 -7 -9 -15 -5 -8 3 -15 3 -15 0 0
-2 12 -9 26 -15 15 -5 24 -12 21 -15 -10 -10 -64 25 -64 41 0 10 6 14 14 10 8
-3 19 -5 24 -5z m119 6 c0 -11 -32 -78 -35 -74 -7 7 18 78 27 78 4 0 8 -2 8
-4z m-512 -13 c-10 -2 -26 -2 -35 0 -10 3 -2 5 17 5 19 0 27 -2 18 -5z m574
-18 c-2 -14 -8 -25 -13 -25 -12 0 -11 7 1 31 14 26 18 24 12 -6z m54 9 c-3 -9
-6 -20 -6 -25 0 -6 -4 -8 -9 -5 -12 8 -2 46 11 46 6 0 7 -7 4 -16z m310 6 c15
-6 24 -13 22 -16 -3 -3 -21 2 -39 10 -39 16 -24 21 17 6z m1025 -23 c-16 -16
-26 0 -10 19 9 11 15 12 17 4 2 -6 -1 -17 -7 -23z m-2142 -18 c8 -25 9 -44 3
-48 -5 -3 -11 -11 -13 -18 -2 -6 -11 10 -20 37 -15 48 -7 59 12 16 8 -19 9
-19 5 -1 -2 11 -7 28 -11 38 -4 9 -3 17 2 17 6 0 15 -19 22 -41z m381 26 c11
-13 10 -14 -4 -9 -9 3 -16 10 -16 15 0 13 6 11 20 -6z m1370 9 c0 -8 -108 -54
-128 -54 -9 0 10 13 43 29 59 29 85 37 85 25z m-2117 -62 c-30 -45 -40 -54
-24 -24 7 12 10 26 7 31 -3 4 2 18 11 30 11 17 18 20 23 11 4 -7 -3 -28 -17
-48z m237 48 c0 -5 -5 -10 -11 -10 -5 0 -7 5 -4 10 3 6 8 10 11 10 2 0 4 -4 4
-10z m396 -1 c2 -4 -41 -6 -95 -5 -54 0 -97 4 -94 8 5 9 183 6 189 -3z m219 1
c3 -5 1 -10 -4 -10 -6 0 -11 5 -11 10 0 6 2 10 4 10 3 0 8 -4 11 -10z m1350 1
c-16 -15 -89 -51 -102 -51 -7 0 -13 -5 -13 -10 0 -7 7 -7 21 0 11 7 23 9 26 6
3 -3 -6 -10 -21 -16 -35 -13 -36 -13 -36 4 0 7 26 27 58 43 60 31 83 40 67 24z
m100 -1 c-9 -14 -86 -53 -92 -46 -3 2 17 16 44 30 56 29 56 29 48 16z m-1672
-38 c16 -13 68 -12 61 0 -4 5 -14 8 -23 5 -10 -2 -18 1 -18 8 0 7 11 12 26 11
37 -3 83 -28 77 -42 -2 -6 1 -18 7 -25 9 -10 8 -10 -6 1 -12 8 -21 10 -28 3
-6 -6 3 -19 28 -36 24 -17 39 -23 44 -16 4 8 9 7 14 -1 4 -7 2 -16 -4 -20 -9
-5 -8 -10 4 -20 16 -13 21 -40 7 -40 -5 0 -15 11 -22 25 -7 13 -16 23 -19 22
-3 -1 -28 14 -55 32 -72 50 -140 73 -216 73 -51 0 -61 2 -46 10 48 27 198 -14
281 -78 19 -14 35 -24 35 -21 0 3 -19 19 -42 36 -23 17 -36 31 -28 31 22 0 1
14 -23 15 -12 1 -49 9 -81 19 -42 13 -76 17 -115 13 -46 -5 -53 -4 -39 7 19
14 160 5 181 -12z m318 2 c6 -8 9 -14 6 -14 -13 0 -57 24 -57 31 0 11 38 -1
51 -17z m111 4 c-7 -7 -12 -8 -12 -2 0 6 3 14 7 17 3 4 9 5 12 2 2 -3 -1 -11
-7 -17z m1930 -10 c-7 -7 -12 -8 -12 -2 0 14 12 26 19 19 2 -3 -1 -11 -7 -17z
m-2673 -66 c12 -29 21 -63 20 -75 0 -12 -9 4 -19 36 -10 32 -25 69 -34 82 -20
30 -21 44 -2 25 8 -8 24 -39 35 -68z m-104 24 c-25 -33 -45 -46 -45 -29 0 10
63 74 68 69 2 -3 -8 -21 -23 -40z m1562 38 c-3 -3 -12 -4 -19 -1 -8 3 -5 6 6
6 11 1 17 -2 13 -5z m1105 -16 c-11 -13 -36 -31 -54 -41 -29 -17 -28 -14 12
22 48 43 78 56 42 19z m-1057 2 c-11 -5 -27 -9 -35 -9 -9 0 -8 4 5 9 11 5 27
9 35 9 9 0 8 -4 -5 -9z m165 -5 c-14 -7 -47 -17 -75 -21 -27 -3 -60 -10 -72
-15 -13 -5 -33 -4 -45 1 -21 8 -21 9 8 9 17 1 34 4 38 9 7 6 115 28 156 30 8
1 4 -5 -10 -13z m1020 -34 c-6 -23 -15 -41 -20 -41 -8 0 5 63 17 83 12 19 13
-4 3 -42z m-2721 -21 c27 -52 34 -99 17 -116 -12 -12 -17 -4 -35 57 -12 38
-26 67 -31 64 -6 -3 -7 1 -4 9 8 22 12 20 34 -16 11 -18 20 -28 20 -23 0 6 -9
25 -20 43 -11 18 -20 36 -20 40 0 9 16 -15 39 -58z m511 39 c0 -6 -4 -7 -10
-4 -5 3 -10 11 -10 16 0 6 5 7 10 4 6 -3 10 -11 10 -16z m650 11 c0 -5 -2 -10
-4 -10 -3 0 -8 5 -11 10 -3 6 -1 10 4 10 6 0 11 -4 11 -10z m866 -5 c-33 -25
-164 -70 -144 -49 8 8 141 62 153 63 6 0 1 -6 -9 -14z m-1701 -10 c63 -18 178
-97 194 -132 11 -24 11 -25 -5 -12 -16 13 -16 12 -7 -6 6 -12 7 -44 4 -77 -6
-45 -14 -65 -36 -88 -16 -16 -32 -30 -37 -30 -5 0 -29 -10 -54 -22 -54 -25
-64 -18 -64 49 0 31 5 46 21 56 14 11 17 17 9 22 -9 6 -9 10 1 16 10 6 11 9 2
9 -21 0 -15 18 8 25 20 7 19 8 -11 27 -50 30 -27 34 27 4 26 -15 39 -20 28
-11 -11 10 -38 26 -60 36 -26 12 -33 19 -20 19 11 0 40 -12 64 -25 31 -18 40
-20 30 -8 -12 15 -12 16 4 10 24 -9 21 0 -4 14 -17 9 -20 8 -14 -2 6 -9 3 -10
-11 -4 -10 4 -34 13 -51 19 -37 12 -45 27 -10 20 13 -3 9 1 -10 10 -33 15 -44
35 -20 37 6 0 3 4 -8 9 -18 8 -18 9 5 9 14 0 32 -4 40 -9 12 -8 12 -10 -5 -10
-14 -1 -10 -5 14 -16 19 -8 55 -31 80 -51 26 -21 37 -27 26 -13 -11 12 -40 36
-64 52 -25 15 -39 28 -32 28 17 0 49 -18 96 -53 39 -30 40 -30 15 -3 -41 46
-141 87 -226 93 -41 3 -74 10 -74 14 0 14 103 10 155 -6z m409 -35 c5 -6 7
-12 5 -15 -7 -6 -109 47 -109 57 0 8 90 -29 104 -42z m-29 40 c3 -6 -1 -7 -9
-4 -18 7 -21 14 -7 14 6 0 13 -4 16 -10z m1245 6 c0 -2 -7 -7 -16 -10 -8 -3
-12 -2 -9 4 6 10 25 14 25 6z m671 -19 c-10 -9 -11 -8 -5 6 3 10 9 15 12 12 3
-3 0 -11 -7 -18z m-1426 3 c3 -5 2 -10 -4 -10 -5 0 -13 5 -16 10 -3 6 -2 10 4
10 5 0 13 -4 16 -10z m-595 -10 c0 -5 -4 -10 -10 -10 -5 0 -10 5 -10 10 0 6 5
10 10 10 6 0 10 -4 10 -10z m655 0 c3 -5 1 -10 -4 -10 -6 0 -11 5 -11 10 0 6
2 10 4 10 3 0 8 -4 11 -10z m452 4 c-3 -3 -12 -4 -19 -1 -8 3 -5 6 6 6 11 1
17 -2 13 -5z m167 -12 c-76 -41 -109 -63 -84 -56 14 4 36 12 50 19 14 7 44 11
67 9 22 -2 60 3 83 11 52 18 55 19 41 1 -10 -12 -7 -15 21 -18 l33 -3 -50 -24
c-74 -34 -152 -60 -160 -53 -3 4 -21 13 -38 20 l-32 12 30 -5 c20 -4 25 -3 16
4 -11 7 -9 10 8 16 13 4 21 8 19 10 -2 2 -30 -5 -62 -16 -33 -10 -69 -19 -80
-19 -20 1 -19 2 4 15 14 8 19 14 12 15 -7 0 -11 4 -8 9 4 5 -3 7 -14 4 -11 -3
-18 -8 -16 -12 2 -3 -21 -7 -52 -8 l-57 -2 70 20 c39 11 86 24 105 29 19 4 29
8 23 9 -7 0 -13 5 -13 10 0 10 27 15 85 18 l30 1 -31 -16z m809 -16 c-3 -4 -9
-3 -13 4 -4 7 -13 9 -19 6 -6 -4 -11 -3 -11 3 0 5 6 11 12 13 15 5 38 -14 31
-26z m-2413 14 c0 -5 -10 -10 -22 -10 -13 0 -33 -3 -45 -6 -17 -5 -23 -2 -23
10 0 12 10 16 45 16 25 0 45 -4 45 -10z m416 -16 c65 -38 61 -44 -11 -16 -36
14 -65 29 -65 34 0 15 32 8 76 -18z m1912 14 c-5 -14 -57 -33 -65 -24 -9 9 25
32 48 33 11 1 19 -3 17 -9z m-1298 -8 c0 -5 -2 -10 -4 -10 -3 0 -8 5 -11 10
-3 6 -1 10 4 10 6 0 11 -4 11 -10z m390 -1 c-30 -12 -178 -25 -168 -15 6 7
116 23 168 24 l25 1 -25 -10z m810 2 c0 -11 -59 -36 -66 -28 -5 5 34 27 64 36
1 1 2 -3 2 -8z m-2551 -36 c11 -20 23 -48 26 -63 l6 -27 -16 25 c-10 15 -14
18 -11 7 20 -63 19 -65 -23 -87 -33 -16 -41 -17 -41 -6 0 8 -3 22 -7 32 -4 12
-3 15 5 10 13 -8 15 7 6 41 -4 13 -10 21 -14 18 -11 -7 -7 28 5 42 8 9 13 8
23 -5 6 -8 12 -21 12 -26 0 -6 -7 -2 -15 8 -19 25 -19 16 0 -20 13 -25 15 -26
16 -9 4 54 3 71 -5 83 -5 7 -4 12 2 12 5 0 19 -16 31 -35z m331 13 c0 -5 -17
-8 -37 -8 -26 0 -33 3 -24 9 16 10 61 9 61 -1z m970 2 c0 -5 -2 -10 -4 -10 -3
0 -8 5 -11 10 -3 6 -1 10 4 10 6 0 11 -4 11 -10z m1260 -10 c-24 -15 -37 -11
-16 5 11 8 22 12 25 9 3 -3 -1 -9 -9 -14z m-1155 0 c3 -5 1 -10 -4 -10 -6 0
-11 5 -11 10 0 6 2 10 4 10 3 0 8 -4 11 -10z m-1697 -29 c-13 -15 -26 -27 -30
-24 -9 5 32 53 45 53 4 0 -2 -13 -15 -29z m2807 19 c-3 -5 -14 -10 -23 -9 -14
0 -13 2 3 9 27 11 27 11 20 0z m115 0 c0 -5 -5 -10 -11 -10 -5 0 -7 5 -4 10 3
6 8 10 11 10 2 0 4 -4 4 -10z m-2295 -10 c4 -6 -8 -10 -29 -10 -20 0 -36 5
-36 10 0 6 13 10 29 10 17 0 33 -4 36 -10z m1105 0 c0 -5 -2 -10 -4 -10 -3 0
-8 5 -11 10 -3 6 -1 10 4 10 6 0 11 -4 11 -10z m1270 6 c0 -2 -7 -6 -15 -10
-8 -3 -15 -1 -15 4 0 6 7 10 15 10 8 0 15 -2 15 -4z m40 -36 c-8 -42 -20 -65
-20 -38 0 29 12 78 20 78 4 0 4 -18 0 -40z m-33 -2 c-3 -8 -6 -5 -6 6 -1 11 2
17 5 13 3 -3 4 -12 1 -19z m84 -35 c-9 -16 -10 -16 -11 4 0 12 3 30 7 40 7 16
8 16 11 -4 2 -12 -1 -30 -7 -40z m-2476 37 c-44 -11 -67 -11 -60 0 3 6 25 9
48 9 40 -1 40 -2 12 -9z m2290 -9 c-3 -6 -11 -8 -17 -5 -6 4 -5 9 3 15 16 10
23 4 14 -10z m-2258 -17 c2 -7 -12 -13 -37 -16 -27 -2 -40 0 -40 9 0 22 70 28
77 7z m2213 6 c0 -5 -5 -10 -11 -10 -5 0 -7 5 -4 10 3 6 8 10 11 10 2 0 4 -4
4 -10z m-2750 -40 c-6 -10 -15 -22 -20 -25 -16 -10 -12 11 5 25 8 7 12 17 8
23 -3 6 -1 7 5 3 9 -5 9 -13 2 -26z m1725 20 c3 -5 1 -10 -4 -10 -6 0 -11 5
-11 10 0 6 2 10 4 10 3 0 8 -4 11 -10z m1141 -17 c-2 -16 -4 -31 -5 -35 0 -5
-5 -8 -10 -8 -12 0 -11 41 2 58 14 18 16 15 13 -15z m-2351 -8 c-41 -15 -51
-14 -40 4 3 6 23 11 43 11 l37 -1 -40 -14z m75 -1 c0 -2 -7 -4 -15 -4 -8 0
-15 4 -15 10 0 5 7 7 15 4 8 -4 15 -8 15 -10z m2200 6 c0 -5 -5 -10 -11 -10
-5 0 -7 5 -4 10 3 6 8 10 11 10 2 0 4 -4 4 -10z m-990 -4 c0 -2 -7 -6 -15 -10
-8 -3 -15 -1 -15 4 0 6 7 10 15 10 8 0 15 -2 15 -4z m950 -5 c0 -9 -24 -21
-41 -21 -5 0 -9 5 -9 11 0 6 7 9 15 5 8 -3 15 -1 15 4 0 6 5 10 10 10 6 0 10
-4 10 -9z m-2842 -21 c-7 -10 -14 -17 -17 -15 -4 4 18 35 25 35 2 0 -1 -9 -8
-20z m646 11 c3 -5 -8 -11 -24 -15 -17 -3 -30 -11 -30 -18 0 -9 3 -9 12 0 15
15 48 16 48 2 0 -5 -6 -10 -14 -10 -8 0 -20 -2 -28 -5 -7 -3 -20 -1 -28 4 -12
8 -12 13 4 30 20 22 51 28 60 12z m1296 0 c0 -5 -6 -11 -12 -14 -18 -6 -39 3
-32 14 7 12 44 12 44 0z m980 0 c0 -6 -4 -13 -10 -16 -5 -3 -10 1 -10 9 0 9 5
16 10 16 6 0 10 -4 10 -9z m-930 -11 c0 -11 -48 -25 -57 -16 -3 3 5 10 18 15
32 13 39 13 39 1z m770 0 c-14 -4 -38 -8 -55 -8 -29 0 -29 0 -5 8 14 4 39 8
55 8 29 0 29 0 5 -8z m130 -5 c0 -8 -4 -15 -10 -15 -5 0 -7 7 -4 15 4 8 8 15
10 15 2 0 4 -7 4 -15z m-263 -1 c-3 -3 -12 -4 -19 -1 -8 3 -5 6 6 6 11 1 17
-2 13 -5z m223 -4 c0 -5 -7 -10 -16 -10 -8 0 -12 5 -9 10 3 6 10 10 16 10 5 0
9 -4 9 -10z m-820 -10 c0 -5 -9 -10 -21 -10 -11 0 -17 5 -14 10 3 6 13 10 21
10 8 0 14 -4 14 -10z m45 -10 c3 -5 -1 -10 -9 -10 -9 0 -16 5 -16 10 0 6 4 10
9 10 6 0 13 -4 16 -10z m485 6 c0 -2 -20 -11 -45 -19 -52 -18 -60 -13 -12 8
32 14 57 19 57 11z m75 -6 c-8 -12 -111 -43 -128 -37 -6 2 15 13 48 25 68 23
89 26 80 12z m-255 -9 c0 -5 -8 -11 -17 -14 -10 -2 -26 -8 -35 -12 -10 -4 -18
-3 -18 2 0 6 15 15 33 21 17 5 33 10 35 11 1 1 2 -3 2 -8z m370 0 c0 -5 -26
-22 -57 -37 -46 -22 -74 -28 -135 -29 -43 0 -78 3 -78 8 0 4 -9 5 -20 2 -12
-4 -20 -2 -20 6 0 8 11 10 35 6 21 -3 53 0 77 9 49 17 82 19 58 4 -23 -15 -11
-12 60 15 74 27 80 29 80 16z m-375 -31 c-3 -5 -11 -10 -16 -10 -6 0 -7 5 -4
10 3 6 11 10 16 10 6 0 7 -4 4 -10z m66 -9 c-13 -13 -27 -18 -42 -14 -21 6
-21 7 -4 20 11 7 29 13 42 13 23 0 23 0 4 -19z"/>
<path d="M1942 2963 c-5 -10 -7 -24 -4 -32 3 -8 0 -11 -6 -7 -6 3 -13 2 -16
-3 -10 -16 11 -22 24 -6 10 13 22 65 14 65 -2 0 -7 -8 -12 -17z"/>
<path d="M604 1443 c-55 -70 -62 -81 -44 -66 8 6 19 11 23 11 5 0 12 4 15 8 4
4 1 4 -5 0 -22 -12 -14 4 23 50 20 24 34 44 31 44 -2 0 -22 -21 -43 -47z"/>
<path d="M569 1433 c-13 -16 -12 -17 4 -4 9 7 17 15 17 17 0 8 -8 3 -21 -13z"/>
<path d="M3585 1330 c-4 -12 -5 -24 -2 -27 3 -2 8 5 12 17 4 12 5 24 2 27 -3
2 -8 -5 -12 -17z"/>
<path d="M1233 1306 c13 -10 14 -15 6 -18 -9 -3 -9 -6 2 -10 9 -3 22 -3 29 2
9 6 3 13 -21 24 -24 12 -29 13 -16 2z"/>
<path d="M821 1164 c0 -11 3 -14 6 -6 3 7 2 16 -1 19 -3 4 -6 -2 -5 -13z"/>
<path d="M2710 1164 l-25 -15 25 7 c14 3 32 10 40 15 13 7 13 8 0 8 -8 0 -26
-6 -40 -15z"/>
<path d="M2770 1160 c-8 -5 -10 -10 -5 -10 6 0 17 5 25 10 8 5 11 10 5 10 -5
0 -17 -5 -25 -10z"/>
<path d="M2705 1140 c-13 -5 -14 -9 -5 -9 8 0 24 4 35 9 13 5 14 9 5 9 -8 0
-24 -4 -35 -9z"/>
<path d="M750 1185 c0 -5 5 -17 10 -25 5 -8 10 -10 10 -5 0 6 -5 17 -10 25 -5
8 -10 11 -10 5z"/>
<path d="M3068 963 c7 -3 16 -2 19 1 4 3 -2 6 -13 5 -11 0 -14 -3 -6 -6z"/>
<path d="M2389 3953 c-44 -48 -91 -113 -82 -113 4 0 0 -5 -9 -11 -10 -5 -18
-16 -18 -24 0 -8 -6 -18 -14 -22 -14 -8 -166 -227 -166 -239 0 -4 -8 -14 -18
-23 -10 -9 -21 -25 -25 -36 -5 -14 1 -11 18 10 42 50 127 175 119 175 -4 0 -1
6 8 13 24 18 178 226 178 239 0 7 10 22 22 35 12 13 19 23 17 23 -3 0 -17 -12
-30 -27z"/>
<path d="M2270 3725 c-7 -9 -10 -18 -6 -22 3 -3 6 -1 6 6 0 7 4 10 8 7 5 -3 9
1 9 9 0 19 -2 19 -17 0z"/>
<path d="M2231 3663 c-12 -16 -44 -57 -71 -92 -28 -35 -50 -69 -50 -75 1 -14
33 25 99 120 50 72 64 102 22 47z"/>
<path d="M2010 3428 c-18 -20 -26 -38 -16 -38 3 0 14 14 26 30 25 35 20 40
-10 8z"/>
<path d="M1902 3168 c-6 -14 -19 -34 -30 -45 -10 -10 -22 -27 -26 -38 -8 -23
-3 -18 43 42 18 24 31 49 28 55 -3 8 -9 2 -15 -14z"/>
<path d="M1620 3139 c-12 -23 -20 -43 -18 -45 3 -2 14 17 26 41 27 56 20 60
-8 4z"/>
<path d="M2595 3117 c44 -7 96 -21 115 -31 19 -11 87 -73 150 -139 63 -65 142
-140 175 -165 33 -25 89 -71 125 -101 36 -31 56 -44 45 -29 -11 14 -67 64
-125 110 -58 46 -140 121 -183 167 -155 166 -198 193 -307 197 l-75 3 80 -12z"/>
<path d="M2178 2786 c-24 -37 -45 -49 -34 -20 5 14 4 15 -9 4 -11 -9 -15 -9
-15 -1 0 7 -5 9 -10 6 -6 -4 -7 -11 -4 -17 4 -6 -3 -5 -16 2 -22 12 -22 11
-16 -16 l8 -29 -20 23 -19 22 -12 -47 c-6 -27 -18 -68 -26 -93 -14 -44 -11
-43 22 7 10 15 11 13 2 -12 -6 -16 -14 -34 -19 -41 -7 -7 -4 -11 6 -11 8 0 24
13 35 29 11 15 25 25 31 21 8 -4 9 0 4 13 -4 10 -4 15 0 11 4 -4 14 -1 23 6
14 10 13 9 -1 -13 -9 -14 -22 -24 -28 -22 -8 2 -10 -3 -6 -13 3 -9 2 -14 -3
-11 -4 3 -14 -6 -21 -20 -8 -13 -19 -23 -26 -20 -13 5 -34 -13 -34 -29 0 -5 5
-2 11 9 8 13 14 15 19 7 4 -8 24 4 57 36 36 35 57 67 77 118 16 39 35 83 43
98 22 42 8 44 -19 3z m-84 -91 c-4 -8 -8 -15 -10 -15 -2 0 -4 7 -4 15 0 8 4
15 10 15 5 0 7 -7 4 -15z"/>
<path d="M1291 2774 c0 -11 3 -14 6 -6 3 7 2 16 -1 19 -3 4 -6 -2 -5 -13z"/>
<path d="M1210 2761 c5 -11 15 -23 21 -27 6 -3 3 5 -6 20 -20 30 -30 35 -15 7z"/>
<path d="M1195 2740 c10 -11 20 -20 23 -20 3 0 -3 9 -13 20 -10 11 -20 20 -23
20 -3 0 3 -9 13 -20z"/>
<path d="M2230 2690 c-6 -11 -8 -20 -6 -20 3 0 10 9 16 20 6 11 8 20 6 20 -3
0 -10 -9 -16 -20z"/>
<path d="M2349 2683 c-13 -16 -12 -17 4 -4 16 13 21 21 13 21 -2 0 -10 -8 -17
-17z"/>
<path d="M2389 2663 c-13 -16 -12 -17 4 -4 16 13 21 21 13 21 -2 0 -10 -8 -17
-17z"/>
<path d="M2286 2662 c-3 -5 1 -9 9 -9 8 0 12 4 9 9 -3 4 -7 8 -9 8 -2 0 -6 -4
-9 -8z"/>
<path d="M2291 2597 c-46 -75 -71 -145 -61 -173 6 -14 11 -40 11 -57 1 -18 5
-3 10 33 5 36 6 73 3 84 -4 11 -2 16 4 12 6 -4 8 2 4 16 -3 11 -1 19 4 16 5
-3 19 18 30 48 12 30 20 54 19 54 -2 0 -13 -15 -24 -33z"/>
<path d="M2519 2603 l-24 -28 28 24 c25 23 32 31 24 31 -2 0 -14 -12 -28 -27z"/>
<path d="M3230 2627 c0 -4 90 -85 349 -316 l106 -93 -95 91 c-163 157 -360
331 -360 318z"/>
<path d="M984 2573 c-30 -47 -125 -164 -205 -253 -132 -148 -230 -301 -229
-358 1 -9 12 10 27 43 31 74 105 182 185 272 127 143 264 323 244 323 -2 0
-12 -12 -22 -27z"/>
<path d="M1886 2585 c-9 -26 -7 -32 5 -12 6 10 9 21 6 23 -2 3 -7 -2 -11 -11z"/>
<path d="M1970 2550 c-6 -11 -8 -20 -6 -20 3 0 10 9 16 20 6 11 8 20 6 20 -3
0 -10 -9 -16 -20z"/>
<path d="M2483 2558 c-15 -20 -25 -38 -20 -38 3 0 12 11 21 25 17 26 16 35 -1
13z"/>
<path d="M1795 2549 c-4 -6 -5 -12 -2 -15 2 -3 7 2 10 11 7 17 1 20 -8 4z"/>
<path d="M2535 2529 c-9 -17 -15 -33 -13 -35 3 -2 12 12 21 31 21 43 13 47 -8
4z"/>
<path d="M1849 2509 c-6 -13 -7 -19 -1 -15 6 3 12 1 14 -6 3 -7 7 -5 11 6 5
11 3 15 -5 10 -8 -5 -9 -2 -5 9 9 24 0 21 -14 -4z"/>
<path d="M1092 2505 c9 -11 26 -41 37 -65 11 -25 21 -37 21 -27 0 26 -24 69
-51 92 l-24 20 17 -20z"/>
<path d="M2646 2447 c-18 -44 -30 -83 -23 -77 8 8 47 110 42 110 -3 0 -11 -15
-19 -33z"/>
<path d="M2556 2455 c-3 -9 -6 -22 -5 -28 0 -7 5 -1 10 12 5 13 8 26 5 28 -2
2 -6 -3 -10 -12z"/>
<path d="M2596 2455 c-9 -26 -7 -32 5 -12 6 10 9 21 6 23 -2 3 -7 -2 -11 -11z"/>
<path d="M1060 2446 c0 -2 8 -10 18 -17 15 -13 16 -12 3 4 -13 16 -21 21 -21
13z"/>
<path d="M2763 2425 c-3 -9 -3 -18 -1 -21 3 -3 8 4 11 16 6 23 -1 27 -10 5z"/>
<path d="M2041 2374 c0 -11 3 -14 6 -6 3 7 2 16 -1 19 -3 4 -6 -2 -5 -13z"/>
<path d="M2791 2353 c-10 -26 -10 -27 4 -9 8 11 15 23 15 28 0 15 -7 8 -19
-19z"/>
<path d="M2161 2354 c0 -11 3 -14 6 -6 3 7 2 16 -1 19 -3 4 -6 -2 -5 -13z"/>
<path d="M2396 2315 c-9 -26 -7 -32 5 -12 6 10 9 21 6 23 -2 3 -7 -2 -11 -11z"/>
<path d="M2710 2310 c-6 -11 -8 -20 -6 -20 3 0 10 9 16 20 6 11 8 20 6 20 -3
0 -10 -9 -16 -20z"/>
<path d="M2881 2304 c0 -11 3 -14 6 -6 3 7 2 16 -1 19 -3 4 -6 -2 -5 -13z"/>
<path d="M2268 2250 c-14 -33 -24 -60 -22 -60 7 0 57 111 52 115 -2 2 -16 -23
-30 -55z"/>
<path d="M2372 2268 c-5 -7 -13 -23 -16 -35 -4 -11 -13 -27 -21 -33 -8 -7 -15
-18 -15 -24 1 -14 26 19 51 67 19 37 20 48 1 25z"/>
<path d="M2795 2254 c-9 -15 -12 -23 -6 -20 11 7 35 46 28 46 -3 0 -12 -12
-22 -26z"/>
<path d="M2864 2268 c-4 -7 -14 -24 -22 -38 -14 -24 -13 -24 3 -5 20 24 37 55
31 55 -3 0 -8 -6 -12 -12z"/>
<path d="M2946 2263 c-6 -14 -5 -15 5 -6 7 7 10 15 7 18 -3 3 -9 -2 -12 -12z"/>
<path d="M2923 2228 c-20 -26 -26 -41 -15 -34 12 7 36 46 29 46 -3 0 -9 -6
-14 -12z"/>
<path d="M2975 2208 c-4 -13 -19 -39 -33 -58 -21 -28 -22 -31 -5 -17 23 20 58
86 50 94 -3 2 -8 -6 -12 -19z"/>
<path d="M2150 2201 c0 -11 -4 -21 -8 -23 -5 -1 -11 -21 -15 -43 l-5 -40 13
30 c7 17 16 29 19 28 14 -6 20 -2 8 5 -7 5 -10 16 -6 25 3 9 10 14 15 11 5 -3
9 -1 9 4 0 6 -7 12 -15 16 -10 3 -15 -1 -15 -13z"/>
<path d="M3015 2179 c-4 -6 -5 -12 -2 -15 2 -3 7 2 10 11 7 17 1 20 -8 4z"/>
<path d="M2784 2158 l-19 -23 23 19 c21 18 27 26 19 26 -2 0 -12 -10 -23 -22z"/>
<path d="M2260 2108 c-30 -28 -46 -46 -35 -40 19 10 104 92 95 92 -3 -1 -30
-24 -60 -52z"/>
<path d="M2889 2083 c-13 -16 -12 -17 4 -4 16 13 21 21 13 21 -2 0 -10 -8 -17
-17z"/>
<path d="M3339 2013 c-13 -16 -12 -17 4 -4 16 13 21 21 13 21 -2 0 -10 -8 -17
-17z"/>
<path d="M4369 2018 c-45 -12 -100 -60 -89 -78 6 -10 16 -7 43 17 34 30 35 30
187 36 84 4 190 7 234 8 67 0 77 2 56 11 -32 13 -382 18 -431 6z"/>
<path d="M3359 1973 c-13 -16 -12 -17 4 -4 16 13 21 21 13 21 -2 0 -10 -8 -17
-17z"/>
<path d="M3399 1953 c-13 -16 -12 -17 4 -4 16 13 21 21 13 21 -2 0 -10 -8 -17
-17z"/>
<path d="M3453 1958 c-15 -20 -25 -38 -20 -38 3 0 12 11 21 25 17 26 16 35 -1
13z"/>
<path d="M3491 1931 c-29 -29 -55 -71 -47 -78 3 -3 6 -1 6 5 0 7 16 30 36 52
37 41 40 56 5 21z"/>
<path d="M4248 1930 c-7 -24 -3 -38 8 -28 3 4 4 17 2 30 l-3 23 -7 -25z"/>
<path d="M3545 1922 c-11 -10 -29 -29 -40 -42 -11 -14 0 -7 23 15 38 35 47 46
40 45 -2 -1 -12 -9 -23 -18z"/>
<path d="M4275 1884 c-3 -20 -9 -33 -12 -30 -3 3 -18 -32 -34 -78 -15 -45 -48
-129 -73 -185 -65 -144 -126 -368 -126 -462 0 -16 -5 -29 -11 -29 -8 0 -10
-30 -5 -102 4 -78 3 -98 -5 -84 -6 10 -12 68 -13 130 0 61 -5 114 -11 118 -6
5 -5 8 2 8 13 0 13 33 1 45 -25 26 -15 -316 11 -370 11 -23 37 -130 47 -192 4
-24 11 -43 16 -43 6 0 7 -11 4 -26 -4 -15 -3 -23 2 -20 5 3 23 -38 41 -92 37
-118 55 -148 109 -186 61 -42 134 -63 342 -97 102 -17 212 -37 245 -45 62 -15
159 -28 208 -27 15 0 27 -4 27 -8 0 -5 15 -9 33 -9 27 0 35 -5 44 -27 8 -24 9
-22 5 19 -4 44 -3 46 17 41 12 -3 21 -1 21 6 0 6 7 11 15 11 9 0 20 10 24 23
9 22 9 22 20 -6 6 -16 11 -33 11 -39 0 -6 3 -9 6 -6 3 3 -2 41 -11 83 -9 43
-14 80 -11 82 8 8 23 -31 36 -89 15 -77 29 -74 18 4 -4 33 -6 63 -4 65 5 5 46
-102 46 -120 0 -7 4 -6 10 3 5 8 7 25 4 37 -4 13 -3 31 1 40 6 16 8 15 20 -7
17 -29 20 -74 5 -65 -5 3 -10 1 -10 -4 0 -6 6 -11 14 -11 8 0 17 -6 20 -12 6
-14 -3 67 -10 95 -4 11 0 17 11 17 9 0 15 -6 14 -12 -2 -15 42 -120 48 -115 2
3 -8 48 -22 102 -14 53 -25 102 -25 108 0 18 19 -6 23 -28 1 -11 5 -24 8 -30
4 -5 9 -21 12 -35 5 -19 13 -25 32 -25 14 0 25 6 25 14 0 10 3 11 13 3 7 -6
18 -7 25 -3 13 8 5 68 -17 131 -5 14 -19 62 -31 107 -20 75 -21 83 -7 104 l16
22 7 -29 c8 -36 45 -104 56 -104 12 0 10 8 -23 100 -17 47 -41 118 -53 157
-12 40 -25 76 -29 79 -4 4 -7 20 -7 36 0 16 -4 37 -9 46 -5 9 -11 48 -14 87
-4 45 -10 73 -20 80 -35 25 -55 321 -29 411 7 23 9 49 6 58 -10 25 -39 15 -42
-14 -2 -14 -8 -35 -14 -47 -10 -20 -12 -21 -23 -6 -8 11 -14 13 -19 5 -4 -7
-14 -12 -21 -12 -11 0 -13 8 -8 30 4 23 2 30 -11 30 -19 0 -21 16 -4 26 7 4 8
3 4 -4 -4 -7 -2 -12 4 -12 17 0 7 34 -11 38 -12 2 -18 -8 -22 -45 -4 -26 -9
-59 -12 -73 -8 -39 -13 -70 -21 -133 -3 -32 -9 -55 -12 -52 -9 9 -12 39 -6 55
4 8 8 60 10 115 2 55 11 142 19 194 8 52 13 96 11 98 -5 6 -37 -88 -32 -96 2
-3 -7 -17 -19 -30 l-23 -23 4 28 c4 27 4 27 -5 7 -15 -33 -48 -217 -50 -276
-1 -10 -5 -16 -10 -12 -6 3 -8 13 -6 23 1 9 6 40 9 67 4 28 9 58 12 67 16 54
7 85 -19 59 -8 -8 -7 -11 2 -11 10 0 10 -4 3 -12 -10 -13 -24 -69 -23 -100 0
-10 -7 -18 -15 -18 -9 0 -13 9 -12 25 1 14 6 25 11 25 4 0 6 4 2 9 -3 5 -1 12
4 15 5 3 7 15 4 26 -3 11 -1 20 4 20 5 0 10 17 11 37 2 21 7 42 12 47 13 13
13 53 0 61 -5 3 -7 20 -5 38 l5 32 -10 -30 c-6 -16 -12 -43 -14 -60 -6 -43
-26 -95 -37 -95 -14 0 -11 -38 4 -43 7 -4 6 -6 -4 -6 -19 -1 -32 -58 -16 -68
5 -3 5 -8 -2 -12 -6 -4 -12 -22 -14 -41 -3 -19 -9 -36 -15 -38 -6 -2 -9 5 -7
15 2 10 4 18 5 18 0 0 3 23 5 52 7 98 26 173 44 173 14 0 14 2 1 10 -13 9 -13
10 0 10 20 0 23 38 4 57 -12 13 -14 12 -14 -5 0 -11 -7 -39 -15 -63 -14 -39
-21 -68 -30 -134 -2 -11 -9 -45 -15 -75 -7 -30 -14 -65 -14 -77 -1 -12 -5 -25
-9 -30 -11 -10 1 114 18 202 7 39 12 84 11 100 -7 70 -7 71 -22 30 -8 -22 -17
-49 -19 -60 -2 -11 -4 -22 -5 -25 -2 -3 -2 -9 -1 -14 3 -15 -23 -25 -36 -14
-14 11 -7 32 8 23 17 -11 9 4 -13 25 -12 11 -29 18 -39 15 -19 -6 -35 10 -19
20 5 3 10 1 10 -6 0 -7 3 -9 6 -6 4 4 2 13 -5 20 -9 11 -8 32 4 87 8 40 18 77
22 84 4 7 3 8 -4 1 -6 -5 -16 -27 -23 -47 -26 -84 -41 -38 -19 62 6 28 9 54 6
56 -7 7 -37 -133 -37 -175 0 -20 -9 -65 -20 -101 l-20 -65 5 55 c5 50 4 53
-10 36 -8 -10 -12 -22 -10 -27 3 -4 2 -10 -3 -13 -23 -14 20 221 57 318 7 16
10 31 8 33 -8 7 -65 -167 -87 -269 -7 -32 -18 -58 -24 -58 -6 0 -4 -5 4 -10 9
-6 10 -10 3 -10 -11 0 -36 -58 -32 -76 4 -25 -2 -45 -13 -38 -8 5 -9 2 -5 -9
3 -10 2 -17 -4 -17 -6 0 -8 -9 -4 -19 3 -11 0 -23 -6 -27 -9 -5 -11 13 -6 76
3 47 10 86 17 90 9 6 9 9 0 15 -8 5 -8 11 3 23 21 25 29 52 13 46 -9 -3 -13 3
-13 20 0 14 3 23 8 20 5 -3 9 8 9 25 0 24 3 29 18 25 13 -5 14 -4 3 4 -8 6
-10 15 -6 22 5 8 4 11 -3 6 -6 -3 -13 -2 -17 4 -3 5 1 10 10 10 12 0 14 7 9
28 -4 21 -3 24 6 12 9 -13 11 -12 8 4 -7 46 -26 20 -48 -66 -28 -108 -27 -102
-29 -128 -1 -13 -8 -20 -21 -20 -16 0 -19 5 -15 23 17 74 31 207 21 207 -6 0
-4 4 4 10 8 5 11 12 7 16 -4 4 -2 13 4 21 9 10 8 13 0 13 -19 0 -45 -71 -33
-90 11 -18 5 -67 -10 -76 -9 -6 -6 13 9 54 3 6 1 12 -5 12 -5 0 -12 -12 -15
-27 -3 -16 -9 -36 -12 -45 -5 -13 -2 -18 10 -18 12 0 15 -5 11 -16 -3 -9 -6
-22 -6 -30 0 -8 -4 -14 -9 -14 -4 0 -6 12 -3 28 10 56 -15 5 -38 -78 -13 -47
-29 -96 -37 -110 -12 -23 -13 -22 -8 20 3 25 10 59 16 77 6 18 12 51 14 75 2
24 6 57 10 73 4 17 5 27 1 23 -4 -3 -9 -13 -10 -22 -1 -8 -9 -23 -18 -33 -8
-10 -20 -44 -26 -75 -13 -67 -40 -126 -43 -93 -1 11 -1 23 0 28 2 12 -17 8
-33 -9 -9 -8 -16 -20 -16 -25 0 -5 -5 -9 -11 -9 -5 0 -7 4 -4 10 8 13 18 127
11 119 -3 -3 -19 -29 -35 -58 -21 -40 -30 -48 -35 -36 -3 9 -4 21 0 26 3 5 -2
9 -11 9 -9 0 -13 5 -10 10 4 6 11 7 17 4 7 -4 8 -2 4 4 -4 7 -2 12 3 12 6 0
11 8 10 18 0 10 -3 12 -6 5 -2 -7 -12 -13 -20 -13 -13 0 -13 2 -2 17 12 15 12
16 -4 10 -15 -6 -17 -3 -13 16 l6 22 -11 -22 c-14 -27 -34 -31 -24 -5 4 9 20
52 36 95 16 42 35 89 43 105 19 38 36 102 26 102 -4 0 -11 -16 -15 -36z m285
-342 c0 -5 -7 -9 -15 -9 -8 0 -15 4 -15 9 0 4 7 8 15 8 8 0 15 -4 15 -8z m576
-29 c-2 -16 -5 -35 -5 -42 -1 -11 -4 -12 -12 -4 -13 13 -3 73 12 73 5 0 8 -12
5 -27z m-906 10 c0 -5 -10 -19 -21 -33 l-20 -25 16 33 c15 30 25 41 25 25z
m1010 -56 c0 -8 -3 -17 -7 -20 -15 -15 -11 -56 5 -60 12 -3 10 -5 -5 -6 -25
-1 -31 -16 -10 -24 9 -4 9 -8 -2 -15 -7 -5 -11 -14 -7 -20 3 -6 1 -14 -5 -18
-8 -4 -9 10 -5 52 3 33 6 69 6 82 0 12 5 22 11 22 5 0 7 5 4 10 -3 6 -1 10 4
10 6 0 11 -6 11 -13z m-870 -12 c0 -2 -9 -9 -20 -15 -16 -9 -18 -8 -14 5 5 13
34 22 34 10z m510 -11 c0 -8 -19 -13 -24 -6 -3 5 1 9 9 9 8 0 15 -2 15 -3z
m-23 -46 c-3 -8 -6 -5 -6 6 -1 11 2 17 5 13 3 -3 4 -12 1 -19z m-58 -42 c-9
-8 -10 -7 -5 7 3 10 7 24 7 30 1 7 3 4 6 -7 3 -10 -1 -23 -8 -30z m227 -23
c-6 -30 -23 -52 -23 -28 0 8 5 15 10 15 5 0 4 6 -2 14 -11 13 -8 18 17 25 1 1
0 -11 -2 -26z m293 -136 c0 -21 -1 -21 -9 -2 -12 28 -12 37 0 30 6 -3 10 -16
9 -28z m-212 -209 c-2 -13 -4 -5 -4 17 -1 22 1 32 4 23 2 -10 2 -28 0 -40z
m293 32 c0 -5 -4 -10 -10 -10 -5 0 -10 5 -10 10 0 6 5 10 10 10 6 0 10 -4 10
-10z m-293 -92 c-3 -8 -6 -5 -6 6 -1 11 2 17 5 13 3 -3 4 -12 1 -19z m297
-320 c8 -32 11 -58 6 -58 -13 0 -40 95 -39 137 1 43 0 46 33 -79z m-51 -225
c9 -74 -8 -47 -26 41 -9 46 -17 90 -16 97 2 22 36 -91 42 -138z m77 87 c7 -28
16 -53 21 -56 6 -4 6 -11 -1 -19 -6 -7 -9 -18 -8 -25 2 -7 -2 -14 -9 -17 -7
-3 -9 3 -6 16 3 12 0 27 -6 35 -6 7 -9 21 -5 30 3 9 2 16 -4 16 -5 0 -10 16
-10 35 0 51 14 43 28 -15z m-723 18 c-3 -8 -6 -5 -6 6 -1 11 2 17 5 13 3 -3 4
-12 1 -19z m563 -40 c0 -5 -4 -8 -10 -8 -5 0 -10 10 -10 23 0 18 2 19 10 7 5
-8 10 -18 10 -22z m-793 0 c-3 -8 -6 -5 -6 6 -1 11 2 17 5 13 3 -3 4 -12 1
-19z m240 -10 c-3 -8 -6 -5 -6 6 -1 11 2 17 5 13 3 -3 4 -12 1 -19z m-82 -60
c4 -10 3 -18 -3 -18 -12 0 -22 35 -21 70 1 23 2 23 9 -5 4 -16 11 -38 15 -47z
m-99 -71 c13 -16 24 -37 24 -48 0 -16 -5 -18 -32 -12 -18 4 -62 11 -98 17
l-65 11 -2 45 -3 45 15 -32 c14 -33 53 -49 41 -17 -3 8 -2 12 4 9 6 -3 10 1
10 9 0 25 29 18 36 -8 4 -17 11 -23 21 -19 9 4 13 14 9 27 -2 11 -7 39 -10 61
-5 38 -5 38 11 -10 8 -27 26 -63 39 -78z m447 38 c3 -33 11 -73 16 -88 15 -39
14 -52 -3 -38 -7 6 -16 41 -20 79 -4 37 -9 83 -12 102 -3 24 -2 30 4 20 5 -8
12 -42 15 -75z m-264 -31 c17 -50 31 -95 31 -98 0 -8 -70 -1 -108 10 -18 5
-20 9 -11 20 7 9 9 31 5 61 l-7 48 22 -35 c12 -19 29 -46 37 -60 22 -35 26
-10 8 51 -14 48 -22 109 -12 98 2 -2 18 -45 35 -95z m762 52 c0 5 9 -17 20
-50 14 -40 17 -62 10 -69 -7 -7 -13 -3 -19 13 l-9 24 -7 -29 c-8 -33 -18 -25
-36 33 -16 49 -5 71 11 23 9 -24 14 -30 23 -21 8 8 7 13 -3 19 -7 5 -10 14 -7
20 4 6 3 11 -2 11 -5 0 -9 12 -9 27 0 25 0 26 13 8 8 -10 14 -15 15 -9z m-305
-101 c7 -42 9 -74 3 -79 -5 -6 -9 -2 -9 12 0 29 0 29 -16 82 -8 25 -14 56 -14
70 1 24 1 24 12 5 7 -11 17 -51 24 -90z m-571 -19 c6 -14 5 -18 -6 -14 -17 6
-38 75 -31 102 4 14 9 7 17 -25 7 -24 16 -52 20 -63z m-302 70 c4 -10 1 -13
-8 -9 -8 3 -12 9 -9 14 7 12 11 11 17 -5z m1030 -38 c4 -12 4 -24 1 -27 -6 -7
-24 20 -24 37 0 21 17 13 23 -10z m41 -3 c3 -8 1 -15 -3 -15 -5 0 -11 7 -15
15 -3 8 -1 15 3 15 5 0 11 -7 15 -15z m-536 -55 c9 -26 9 -30 -6 -30 -12 0
-17 10 -19 35 -2 41 10 38 25 -5z m106 -35 c3 -8 1 -15 -4 -15 -6 0 -10 7 -10
15 0 8 2 15 4 15 2 0 6 -7 10 -15z m36 -16 c0 -11 -4 -17 -10 -14 -5 3 -10 15
-10 26 0 11 5 17 10 14 6 -3 10 -15 10 -26z m63 5 c7 1 9 1 5 -1 -15 -8 -8
-23 10 -23 18 0 65 -29 49 -30 -5 0 -33 7 -63 16 -39 11 -54 20 -54 33 0 26
10 32 26 16 8 -8 20 -13 27 -11z m-133 6 c0 -5 -2 -10 -4 -10 -3 0 -8 5 -11
10 -3 6 -1 10 4 10 6 0 11 -4 11 -10z"/>
<path d="M3415 1899 c-4 -6 -5 -12 -2 -15 2 -3 7 2 10 11 7 17 1 20 -8 4z"/>
<path d="M3580 1889 c-22 -18 -22 -19 -3 -10 12 6 25 16 28 21 9 15 3 12 -25
-11z"/>
<path d="M3839 1893 c-13 -16 -12 -17 4 -4 16 13 21 21 13 21 -2 0 -10 -8 -17
-17z"/>
<path d="M3536 1843 c-6 -14 -5 -15 5 -6 7 7 10 15 7 18 -3 3 -9 -2 -12 -12z"/>
<path d="M4791 1844 c0 -11 3 -14 6 -6 3 7 2 16 -1 19 -3 4 -6 -2 -5 -13z"/>
<path d="M3475 1839 c-4 -6 -5 -12 -2 -15 2 -3 7 2 10 11 7 17 1 20 -8 4z"/>
<path d="M641 1818 c6 -12 15 -33 20 -47 5 -17 8 -20 8 -8 1 18 -25 77 -35 77
-2 0 1 -10 7 -22z"/>
<path d="M3588 1823 c-18 -21 -31 -43 -25 -43 2 0 13 14 25 30 25 33 24 41 0
13z"/>
<path d="M4897 1773 c-44 -121 -69 -212 -62 -223 11 -18 25 0 25 33 0 18 6 52
14 77 7 25 14 48 15 52 2 12 12 40 27 82 8 21 13 40 11 43 -3 2 -16 -26 -30
-64z"/>
<path d="M3633 1818 c-15 -20 -25 -38 -20 -38 3 0 12 11 21 25 17 26 16 35 -1
13z"/>
<path d="M3776 1813 c-6 -14 -5 -15 5 -6 7 7 10 15 7 18 -3 3 -9 -2 -12 -12z"/>
<path d="M3680 1780 c-6 -11 -8 -20 -6 -20 3 0 10 9 16 20 6 11 8 20 6 20 -3
0 -10 -9 -16 -20z"/>
<path d="M4486 1773 c-6 -14 -5 -15 5 -6 7 7 10 15 7 18 -3 3 -9 -2 -12 -12z"/>
<path d="M845 1773 c-11 -3 -24 -9 -29 -14 -5 -4 8 -3 30 2 58 16 57 26 -1 12z"/>
<path d="M4936 1711 c-3 -22 -9 -48 -12 -58 -5 -12 -4 -15 3 -8 13 12 33 105
23 105 -4 0 -10 -18 -14 -39z"/>
<path d="M1412 1705 c0 -16 2 -22 5 -12 2 9 2 23 0 30 -3 6 -5 -1 -5 -18z"/>
<path d="M2396 1692 c-10 -22 -29 -51 -42 -65 -13 -14 -24 -32 -24 -40 0 -7
-5 -18 -12 -25 -6 -6 -9 -14 -6 -17 3 -4 16 12 29 34 12 23 26 41 31 41 9 0
-28 -64 -48 -80 -7 -7 -14 -10 -14 -8 0 3 -25 -20 -55 -50 -31 -31 -54 -59
-53 -64 2 -5 20 0 40 11 21 10 36 16 34 12 -3 -4 -1 -13 3 -20 7 -10 13 -11
30 -2 12 7 19 16 16 22 -4 5 -11 6 -17 3 -7 -4 -8 -2 -4 4 5 8 12 9 24 1 14
-8 28 0 75 44 31 29 57 57 57 61 0 4 16 27 36 51 30 37 32 42 12 33 -13 -6
-41 -38 -63 -71 -22 -33 -56 -72 -75 -86 -34 -25 -34 -24 11 29 57 68 90 116
88 127 -3 20 2 27 11 13 8 -13 10 -12 10 4 0 12 -5 16 -16 12 -9 -3 -21 -6
-26 -6 -6 0 -9 -3 -5 -6 8 -9 -16 -55 -42 -78 -11 -10 -19 -22 -16 -26 6 -10
-73 -85 -81 -77 -4 4 9 23 28 42 36 37 90 124 69 111 -16 -11 -14 29 5 65 8
17 14 33 11 35 -2 2 -12 -13 -21 -34z m-106 -207 c0 -8 -55 -55 -64 -55 -5 0
6 14 24 30 34 30 40 34 40 25z"/>
<path d="M2433 1683 c-12 -24 -21 -43 -18 -43 7 0 47 70 43 78 -2 5 -13 -11
-25 -35z"/>
<path d="M2775 1719 c-4 -6 -5 -12 -2 -15 2 -3 7 2 10 11 7 17 1 20 -8 4z"/>
<path d="M1126 1693 c9 -38 14 -42 14 -10 0 14 -5 29 -10 32 -7 4 -8 -3 -4
-22z"/>
<path d="M5111 1704 c0 -11 3 -14 6 -6 3 7 2 16 -1 19 -3 4 -6 -2 -5 -13z"/>
<path d="M992 1690 c0 -14 2 -19 5 -12 2 6 2 18 0 25 -3 6 -5 1 -5 -13z"/>
<path d="M2205 1634 c-26 -41 -49 -73 -52 -71 -2 3 5 29 17 58 11 30 20 56 20
59 -1 8 -44 -74 -45 -85 -2 -27 -18 -55 -27 -49 -7 5 -8 2 -3 -5 5 -8 -9 -30
-36 -59 -24 -26 -32 -37 -18 -24 29 25 48 30 29 7 -11 -13 -10 -14 5 -9 13 5
16 4 11 -4 -4 -7 -3 -12 2 -12 15 0 110 107 135 151 26 45 45 53 22 10 -8 -17
-12 -37 -9 -45 4 -11 -2 -19 -18 -25 -44 -17 -61 -56 -25 -56 18 0 127 143
127 168 0 4 -4 7 -10 7 -5 0 -10 -6 -10 -14 0 -8 -12 -28 -26 -43 l-26 -28 21
38 c21 38 29 66 11 37 -5 -8 -12 -11 -17 -7 -4 4 -2 17 5 27 7 11 12 25 12 32
0 7 -9 -2 -20 -19 -11 -18 -24 -33 -28 -33 -5 0 -21 -21 -35 -47 -26 -47 -107
-146 -107 -130 0 4 25 44 55 88 54 78 100 159 91 159 -2 0 -25 -34 -51 -76z
m25 -133 c0 -5 -7 -11 -15 -15 -15 -5 -20 5 -8 17 9 10 23 9 23 -2z"/>
<path d="M2590 1690 c-6 -11 -8 -20 -6 -20 3 0 10 9 16 20 6 11 8 20 6 20 -3
0 -10 -9 -16 -20z"/>
<path d="M641 1684 c0 -11 3 -14 6 -6 3 7 2 16 -1 19 -3 4 -6 -2 -5 -13z"/>
<path d="M3625 1689 c-4 -6 -5 -12 -2 -15 2 -3 7 2 10 11 7 17 1 20 -8 4z"/>
<path d="M2799 1663 c-13 -16 -12 -17 4 -4 16 13 21 21 13 21 -2 0 -10 -8 -17
-17z"/>
<path d="M5092 1645 c-6 -14 -7 -25 -2 -25 9 0 25 39 18 46 -3 2 -10 -7 -16
-21z"/>
<path d="M5409 1624 c-11 -25 -23 -62 -25 -82 -3 -25 3 -15 19 34 13 39 27 76
31 82 4 7 4 12 1 12 -3 0 -15 -21 -26 -46z"/>
<path d="M981 1618 c-1 -30 2 -36 15 -31 9 3 11 8 6 12 -6 3 -12 17 -15 31 -3
19 -5 16 -6 -12z"/>
<path d="M918 1633 c7 -3 16 -2 19 1 4 3 -2 6 -13 5 -11 0 -14 -3 -6 -6z"/>
<path d="M1410 1614 c0 -16 5 -36 10 -44 6 -10 7 -2 3 25 -7 49 -13 58 -13 19z"/>
<path d="M1821 1607 c-8 -18 -26 -58 -41 -89 -15 -32 -25 -58 -24 -58 8 0 52
79 69 123 20 54 17 73 -4 24z"/>
<path d="M3656 1625 c-9 -26 -7 -32 5 -12 6 10 9 21 6 23 -2 3 -7 -2 -11 -11z"/>
<path d="M1691 1614 c0 -11 3 -14 6 -6 3 7 2 16 -1 19 -3 4 -6 -2 -5 -13z"/>
<path d="M1781 1593 c-7 -21 -15 -45 -18 -53 -4 -10 -2 -12 5 -5 12 12 36 85
30 91 -3 2 -10 -13 -17 -33z"/>
<path d="M4716 1611 c-4 -7 -5 -15 -2 -18 9 -9 19 4 14 18 -4 11 -6 11 -12 0z"/>
<path d="M5076 1565 c-9 -26 -7 -32 5 -12 6 10 9 21 6 23 -2 3 -7 -2 -11 -11z"/>
<path d="M818 1558 c5 -5 16 -8 23 -6 8 3 3 7 -10 11 -17 4 -21 3 -13 -5z"/>
<path d="M5240 1561 c0 -6 4 -13 10 -16 6 -3 7 1 4 9 -7 18 -14 21 -14 7z"/>
<path d="M2829 1523 l-24 -28 26 23 c14 12 29 19 32 15 4 -3 7 -1 7 5 0 20
-15 14 -41 -15z"/>
<path d="M3622 1525 c-17 -37 -14 -45 4 -12 9 16 14 31 11 33 -2 2 -9 -7 -15
-21z"/>
<path d="M3053 1508 c-15 -20 -25 -38 -20 -38 3 0 12 11 21 25 17 26 16 35 -1
13z"/>
<path d="M968 1503 c7 -3 16 -2 19 1 4 3 -2 6 -13 5 -11 0 -14 -3 -6 -6z"/>
<path d="M3130 1465 c-13 -14 -21 -27 -18 -30 2 -3 15 6 28 20 13 14 21 27 18
30 -2 3 -15 -6 -28 -20z"/>
<path d="M5301 1454 c0 -11 3 -14 6 -6 3 7 2 16 -1 19 -3 4 -6 -2 -5 -13z"/>
<path d="M3121 1413 c-22 -26 -38 -49 -36 -51 6 -6 55 41 55 52 0 5 7 18 17
28 9 10 14 18 10 18 -3 0 -24 -21 -46 -47z"/>
<path d="M5428 1435 c-6 -30 -3 -43 8 -33 3 4 4 19 2 35 l-3 28 -7 -30z"/>
<path d="M2129 1423 c-13 -16 -12 -17 4 -4 9 7 17 15 17 17 0 8 -8 3 -21 -13z"/>
<path d="M5410 1370 c0 -5 5 -10 10 -10 6 0 10 5 10 10 0 6 -4 10 -10 10 -5 0
-10 -4 -10 -10z"/>
<path d="M2300 1351 c0 -5 -12 -12 -26 -15 -15 -4 -24 -9 -22 -12 3 -2 26 1
51 8 30 8 42 15 34 20 -16 10 -37 10 -37 -1z"/>
<path d="M4033 1334 c-15 -16 -16 -24 -4 -24 8 0 24 30 19 35 -2 2 -9 -3 -15
-11z"/>
<path d="M5411 1345 c-10 -44 -10 -78 0 -68 6 6 9 26 6 44 -2 19 -5 30 -6 24z"/>
<path d="M3992 1290 c0 -14 2 -19 5 -12 2 6 2 18 0 25 -3 6 -5 1 -5 -13z"/>
<path d="M3861 1284 c0 -11 3 -14 6 -6 3 7 2 16 -1 19 -3 4 -6 -2 -5 -13z"/>
<path d="M3896 1265 c-3 -9 -5 -38 -5 -63 2 -46 2 -46 9 13 7 64 6 76 -4 50z"/>
<path d="M3932 1260 c0 -14 2 -19 5 -12 2 6 2 18 0 25 -3 6 -5 1 -5 -13z"/>
<path d="M5396 1238 c-8 -32 -8 -93 1 -84 7 7 15 106 9 106 -2 0 -6 -10 -10
-22z"/>
<path d="M3852 1225 c0 -16 2 -22 5 -12 2 9 2 23 0 30 -3 6 -5 -1 -5 -18z"/>
<path d="M3916 1150 c-8 -78 3 -289 15 -305 5 -5 20 -23 34 -40 25 -29 26 -29
19 -5 -4 14 -13 61 -20 105 -11 76 -12 78 -14 30 -4 -104 -20 14 -20 153 0 72
-2 132 -4 132 -2 0 -7 -31 -10 -70z"/>
<path d="M3080 1185 c-14 -8 -20 -14 -14 -15 5 0 19 7 30 15 24 18 16 19 -16
0z"/>
<path d="M2940 1180 c-8 -5 -12 -11 -10 -14 3 -2 14 2 24 10 22 15 10 19 -14
4z"/>
<path d="M3842 1065 c-1 -71 4 -138 15 -190 18 -87 31 -117 25 -57 -5 59 14
19 29 -57 7 -36 14 -61 16 -55 2 6 -5 56 -17 109 -11 54 -21 121 -22 149 l-1
51 -7 -50 -7 -50 -2 50 c-1 36 -4 46 -11 35 -6 -10 -10 16 -13 80 l-3 95 -2
-110z m38 -177 c0 -18 -2 -20 -9 -8 -6 8 -7 18 -5 22 9 14 14 9 14 -14z"/>
<path d="M2886 1151 c-19 -7 -19 -8 0 -13 13 -3 21 0 21 8 0 8 -1 14 -1 13 -1
0 -10 -4 -20 -8z"/>
<path d="M1549 1136 c16 -9 20 -15 11 -18 -10 -3 -9 -6 4 -11 11 -5 15 -3 10
5 -5 8 -2 9 9 5 28 -11 19 1 -13 18 -36 18 -54 20 -21 1z"/>
<path d="M3951 1134 c0 -11 3 -14 6 -6 3 7 2 16 -1 19 -3 4 -6 -2 -5 -13z"/>
<path d="M5390 1102 c0 -22 4 -43 8 -46 10 -6 10 70 0 80 -5 4 -8 -11 -8 -34z"/>
<path d="M3721 1104 c0 -11 3 -14 6 -6 3 7 2 16 -1 19 -3 4 -6 -2 -5 -13z"/>
<path d="M1445 1100 c11 -5 27 -9 35 -9 9 0 8 4 -5 9 -11 5 -27 9 -35 9 -9 0
-8 -4 5 -9z"/>
<path d="M3883 1065 c0 -22 2 -30 4 -17 2 12 2 30 0 40 -3 9 -5 -1 -4 -23z"/>
<path d="M1507 1079 c7 -7 15 -10 18 -7 3 3 -2 9 -12 12 -14 6 -15 5 -6 -5z"/>
<path d="M3941 1074 c0 -11 3 -14 6 -6 3 7 2 16 -1 19 -3 4 -6 -2 -5 -13z"/>
<path d="M662 1060 c0 -14 2 -19 5 -12 2 6 2 18 0 25 -3 6 -5 1 -5 -13z"/>
<path d="M3793 1015 c0 -38 2 -53 4 -32 2 20 2 52 0 70 -2 17 -4 1 -4 -38z"/>
<path d="M1418 1063 c7 -3 16 -2 19 1 4 3 -2 6 -13 5 -11 0 -14 -3 -6 -6z"/>
<path d="M1540 1066 c0 -3 9 -10 20 -16 11 -6 20 -8 20 -6 0 3 -9 10 -20 16
-11 6 -20 8 -20 6z"/>
<path d="M3712 995 c0 -16 2 -22 5 -12 2 9 2 23 0 30 -3 6 -5 -1 -5 -18z"/>
<path d="M230 989 c-7 -11 -10 -23 -7 -25 2 -2 9 7 15 21 14 30 7 33 -8 4z"/>
<path d="M191 896 c-11 -31 -26 -77 -32 -103 -7 -27 -17 -55 -23 -63 -6 -8 12
5 39 30 28 24 52 49 54 54 2 5 -7 0 -19 -12 -47 -44 -51 -24 -15 75 13 37 22
69 21 71 -2 2 -13 -22 -25 -52z"/>
<path d="M3819 887 c-3 -21 -2 -40 2 -43 4 -2 5 -12 2 -22 -2 -10 2 -34 10
-53 19 -43 20 -20 3 81 -11 68 -13 71 -17 37z"/>
<path d="M306 893 c-6 -14 -5 -15 5 -6 7 7 10 15 7 18 -3 3 -9 -2 -12 -12z"/>
<path d="M369 893 c-13 -16 -12 -17 4 -4 9 7 17 15 17 17 0 8 -8 3 -21 -13z"/>
<path d="M3573 855 c0 -22 2 -30 4 -17 2 12 2 30 0 40 -3 9 -5 -1 -4 -23z"/>
<path d="M3722 870 c0 -14 2 -19 5 -12 2 6 2 18 0 25 -3 6 -5 1 -5 -13z"/>
<path d="M309 843 c-13 -16 -12 -17 4 -4 9 7 17 15 17 17 0 8 -8 3 -21 -13z"/>
<path d="M3693 815 c0 -22 2 -30 4 -17 2 12 2 30 0 40 -3 9 -5 -1 -4 -23z"/>
<path d="M3632 820 c0 -14 2 -19 5 -12 2 6 2 18 0 25 -3 6 -5 1 -5 -13z"/>
<path d="M3770 833 c1 -4 7 -19 15 -33 11 -20 14 -21 15 -7 0 10 -7 25 -15 33
-8 9 -15 12 -15 7z"/>
<path d="M3753 798 c-7 -9 -6 -25 3 -48 l12 -35 1 48 c1 50 -1 54 -16 35z"/>
<path d="M3582 780 c0 -14 2 -19 5 -12 2 6 2 18 0 25 -3 6 -5 1 -5 -13z"/>
<path d="M3892 750 c0 -14 2 -19 5 -12 2 6 2 18 0 25 -3 6 -5 1 -5 -13z"/>
<path d="M3591 734 c0 -11 3 -14 6 -6 3 7 2 16 -1 19 -3 4 -6 -2 -5 -13z"/>
<path d="M3992 730 c0 -32 25 -132 26 -105 1 11 -5 45 -13 75 -7 30 -13 44
-13 30z"/>
<path d="M3952 720 c0 -14 2 -19 5 -12 2 6 2 18 0 25 -3 6 -5 1 -5 -13z"/>
<path d="M3680 711 c0 -5 5 -13 10 -16 6 -3 10 -2 10 4 0 5 -4 13 -10 16 -5 3
-10 2 -10 -4z"/>
<path d="M3720 703 c0 -4 5 -15 10 -23 8 -13 10 -13 10 2 0 9 -4 20 -10 23 -5
3 -10 3 -10 -2z"/>
<path d="M3771 684 c0 -11 3 -14 6 -6 3 7 2 16 -1 19 -3 4 -6 -2 -5 -13z"/>
<path d="M3701 650 c0 -8 4 -22 9 -30 12 -18 12 -2 0 25 -6 13 -9 15 -9 5z"/>
<path d="M3781 645 c0 -11 4 -29 9 -40 l9 -20 0 20 c0 11 -4 29 -9 40 l-9 20
0 -20z"/>
<path d="M4021 584 c0 -11 3 -14 6 -6 3 7 2 16 -1 19 -3 4 -6 -2 -5 -13z"/>
<path d="M3700 568 c0 -13 18 -21 76 -33 41 -10 78 -14 81 -11 4 3 -3 6 -15 6
-12 0 -22 4 -22 10 0 5 -7 7 -16 3 -11 -4 -22 1 -30 12 -8 11 -14 13 -14 6 0
-15 -41 -5 -52 13 -5 7 -8 5 -8 -6z"/>
<path d="M3840 561 c0 -5 5 -13 10 -16 6 -3 10 -2 10 4 0 5 -4 13 -10 16 -5 3
-10 2 -10 -4z"/>
<path d="M3870 552 c0 -6 5 -14 11 -18 8 -4 7 -9 -2 -15 -10 -6 -7 -9 10 -9
24 0 24 0 5 23 -10 12 -20 24 -21 26 -2 2 -3 -1 -3 -7z"/>
<path d="M3950 555 c0 -5 5 -17 10 -25 5 -8 10 -10 10 -5 0 6 -5 17 -10 25 -5
8 -10 11 -10 5z"/>
<path d="M4030 538 c0 -9 7 -22 17 -29 15 -13 15 -12 3 11 -17 34 -20 36 -20
18z"/>
<path d="M4074 513 c2 -14 -2 -23 -13 -26 -11 -3 -9 -5 7 -6 24 -1 26 4 11 34
-9 19 -9 19 -5 -2z"/>
<path d="M3925 510 c-3 -5 1 -10 10 -10 9 0 13 5 10 10 -3 6 -8 10 -10 10 -2
0 -7 -4 -10 -10z"/>
<path d="M3960 506 c0 -2 7 -7 16 -10 8 -3 12 -2 9 4 -6 10 -25 14 -25 6z"/>
<path d="M5456 150 c7 -48 10 -57 20 -47 3 3 -1 25 -10 49 l-16 43 6 -45z"/>
</g>
</svg>
